<mxfile host="app.diagrams.net" modified="2023-01-12T23:35:33.343Z" agent="5.0 (Windows NT 10.0; Win64; x64) AppleWebKit/537.36 (KHTML, like Gecko) Chrome/108.0.0.0 Safari/537.36" etag="Dj2y2lgxqJ0ulb3ikM-s" version="20.8.3" type="github" pages="4">
  <diagram id="C5RBs43oDa-KdzZeNtuy" name="Ex_1">
    <mxGraphModel dx="1194" dy="1931" grid="1" gridSize="10" guides="1" tooltips="1" connect="1" arrows="1" fold="1" page="1" pageScale="1" pageWidth="827" pageHeight="1169" math="0" shadow="0">
      <root>
        <mxCell id="WIyWlLk6GJQsqaUBKTNV-0" />
        <mxCell id="WIyWlLk6GJQsqaUBKTNV-1" parent="WIyWlLk6GJQsqaUBKTNV-0" />
        <mxCell id="HUlqkKtKS5IJZ3lwoadS-8" style="edgeStyle=orthogonalEdgeStyle;rounded=0;orthogonalLoop=1;jettySize=auto;html=1;exitX=0.5;exitY=1;exitDx=0;exitDy=0;exitPerimeter=0;entryX=0.5;entryY=0;entryDx=0;entryDy=0;entryPerimeter=0;fontColor=default;labelBackgroundColor=none;" edge="1" parent="WIyWlLk6GJQsqaUBKTNV-1" source="HUlqkKtKS5IJZ3lwoadS-1" target="HUlqkKtKS5IJZ3lwoadS-4">
          <mxGeometry relative="1" as="geometry" />
        </mxCell>
        <mxCell id="HUlqkKtKS5IJZ3lwoadS-1" value="&lt;div style=&quot;&quot;&gt;&lt;pre style=&quot;&quot;&gt;&lt;div style=&quot;font-family: &amp;quot;JetBrains Mono&amp;quot;, monospace;&quot;&gt;&lt;pre style=&quot;&quot;&gt;i &amp;lt; ARRAY_SIZE&lt;/pre&gt;&lt;/div&gt;&lt;/pre&gt;&lt;/div&gt;" style="strokeWidth=2;html=1;shape=mxgraph.flowchart.loop_limit;whiteSpace=wrap;rounded=0;labelBackgroundColor=none;" vertex="1" parent="WIyWlLk6GJQsqaUBKTNV-1">
          <mxGeometry x="480" y="160" width="120" height="80" as="geometry" />
        </mxCell>
        <mxCell id="HUlqkKtKS5IJZ3lwoadS-36" style="edgeStyle=orthogonalEdgeStyle;rounded=0;orthogonalLoop=1;jettySize=auto;html=1;exitX=0.5;exitY=0;exitDx=0;exitDy=0;exitPerimeter=0;entryX=0.5;entryY=0;entryDx=0;entryDy=0;entryPerimeter=0;fontColor=#000000;" edge="1" parent="WIyWlLk6GJQsqaUBKTNV-1" source="HUlqkKtKS5IJZ3lwoadS-2" target="HUlqkKtKS5IJZ3lwoadS-35">
          <mxGeometry relative="1" as="geometry" />
        </mxCell>
        <mxCell id="HUlqkKtKS5IJZ3lwoadS-2" value="&lt;div style=&quot;background-color:#1e1f22;color:#a9b7c6;font-family:&#39;JetBrains Mono&#39;,monospace;font-size:12,8pt;&quot;&gt;&lt;pre&gt;i++&lt;/pre&gt;&lt;/div&gt;" style="strokeWidth=2;html=1;shape=mxgraph.flowchart.loop_limit;whiteSpace=wrap;direction=west;rounded=0;labelBackgroundColor=none;" vertex="1" parent="WIyWlLk6GJQsqaUBKTNV-1">
          <mxGeometry x="485" y="810" width="110" height="80" as="geometry" />
        </mxCell>
        <mxCell id="HUlqkKtKS5IJZ3lwoadS-30" style="edgeStyle=orthogonalEdgeStyle;rounded=0;orthogonalLoop=1;jettySize=auto;html=1;exitX=0.5;exitY=1;exitDx=0;exitDy=0;exitPerimeter=0;entryX=0.5;entryY=0;entryDx=0;entryDy=0;fontColor=#000000;" edge="1" parent="WIyWlLk6GJQsqaUBKTNV-1" source="HUlqkKtKS5IJZ3lwoadS-3" target="HUlqkKtKS5IJZ3lwoadS-29">
          <mxGeometry relative="1" as="geometry" />
        </mxCell>
        <mxCell id="HUlqkKtKS5IJZ3lwoadS-3" value="Start" style="strokeWidth=2;html=1;shape=mxgraph.flowchart.terminator;whiteSpace=wrap;rounded=0;labelBackgroundColor=none;" vertex="1" parent="WIyWlLk6GJQsqaUBKTNV-1">
          <mxGeometry x="480" y="-584" width="120" height="50" as="geometry" />
        </mxCell>
        <mxCell id="HUlqkKtKS5IJZ3lwoadS-6" style="edgeStyle=orthogonalEdgeStyle;rounded=0;orthogonalLoop=1;jettySize=auto;html=1;exitX=0.5;exitY=1;exitDx=0;exitDy=0;exitPerimeter=0;entryX=0.5;entryY=0;entryDx=0;entryDy=0;entryPerimeter=0;fontColor=default;labelBackgroundColor=none;" edge="1" parent="WIyWlLk6GJQsqaUBKTNV-1" source="HUlqkKtKS5IJZ3lwoadS-4" target="HUlqkKtKS5IJZ3lwoadS-5">
          <mxGeometry relative="1" as="geometry" />
        </mxCell>
        <mxCell id="HUlqkKtKS5IJZ3lwoadS-12" style="edgeStyle=orthogonalEdgeStyle;rounded=0;orthogonalLoop=1;jettySize=auto;html=1;exitX=1;exitY=0.5;exitDx=0;exitDy=0;exitPerimeter=0;entryX=0;entryY=0.5;entryDx=0;entryDy=0;fontColor=default;labelBackgroundColor=none;" edge="1" parent="WIyWlLk6GJQsqaUBKTNV-1" source="HUlqkKtKS5IJZ3lwoadS-4" target="HUlqkKtKS5IJZ3lwoadS-11">
          <mxGeometry relative="1" as="geometry" />
        </mxCell>
        <mxCell id="HUlqkKtKS5IJZ3lwoadS-4" value="&lt;div style=&quot;font-family: &amp;quot;JetBrains Mono&amp;quot;, monospace;&quot;&gt;&lt;pre style=&quot;&quot;&gt;&lt;span style=&quot;background-color: rgb(255, 255, 255);&quot;&gt;NUMBER == &lt;/span&gt;&lt;/pre&gt;&lt;pre style=&quot;&quot;&gt;&lt;span style=&quot;background-color: rgb(255, 255, 255);&quot;&gt;array.get(i)&lt;/span&gt;&lt;/pre&gt;&lt;/div&gt;" style="strokeWidth=2;html=1;shape=mxgraph.flowchart.decision;whiteSpace=wrap;rounded=0;labelBackgroundColor=none;" vertex="1" parent="WIyWlLk6GJQsqaUBKTNV-1">
          <mxGeometry x="480" y="290" width="120" height="120" as="geometry" />
        </mxCell>
        <mxCell id="HUlqkKtKS5IJZ3lwoadS-9" style="edgeStyle=orthogonalEdgeStyle;rounded=0;orthogonalLoop=1;jettySize=auto;html=1;exitX=0;exitY=0.5;exitDx=0;exitDy=0;exitPerimeter=0;entryX=0.5;entryY=0;entryDx=0;entryDy=0;entryPerimeter=0;fontColor=default;labelBackgroundColor=none;" edge="1" parent="WIyWlLk6GJQsqaUBKTNV-1" source="HUlqkKtKS5IJZ3lwoadS-5" target="HUlqkKtKS5IJZ3lwoadS-1">
          <mxGeometry relative="1" as="geometry">
            <Array as="points">
              <mxPoint x="460" y="540" />
              <mxPoint x="460" y="140" />
              <mxPoint x="540" y="140" />
            </Array>
          </mxGeometry>
        </mxCell>
        <mxCell id="HUlqkKtKS5IJZ3lwoadS-14" style="edgeStyle=orthogonalEdgeStyle;rounded=0;orthogonalLoop=1;jettySize=auto;html=1;exitX=0.5;exitY=1;exitDx=0;exitDy=0;exitPerimeter=0;entryX=0.5;entryY=0;entryDx=0;entryDy=0;fontColor=default;labelBackgroundColor=none;" edge="1" parent="WIyWlLk6GJQsqaUBKTNV-1" source="HUlqkKtKS5IJZ3lwoadS-5" target="HUlqkKtKS5IJZ3lwoadS-13">
          <mxGeometry relative="1" as="geometry" />
        </mxCell>
        <mxCell id="HUlqkKtKS5IJZ3lwoadS-5" value="&lt;div style=&quot;font-family: &amp;quot;JetBrains Mono&amp;quot;, monospace;&quot;&gt;&lt;pre style=&quot;&quot;&gt;&lt;div style=&quot;font-family: &amp;quot;JetBrains Mono&amp;quot;, monospace;&quot;&gt;&lt;pre style=&quot;&quot;&gt;&lt;span style=&quot;background-color: rgb(255, 255, 255);&quot;&gt;i == array.size() - 1&lt;/span&gt;&lt;/pre&gt;&lt;/div&gt;&lt;/pre&gt;&lt;/div&gt;" style="strokeWidth=2;html=1;shape=mxgraph.flowchart.decision;whiteSpace=wrap;rounded=0;labelBackgroundColor=none;" vertex="1" parent="WIyWlLk6GJQsqaUBKTNV-1">
          <mxGeometry x="480" y="480" width="120" height="120" as="geometry" />
        </mxCell>
        <mxCell id="HUlqkKtKS5IJZ3lwoadS-18" style="edgeStyle=orthogonalEdgeStyle;rounded=0;orthogonalLoop=1;jettySize=auto;html=1;exitX=0.5;exitY=1;exitDx=0;exitDy=0;entryX=0.5;entryY=1;entryDx=0;entryDy=0;entryPerimeter=0;fontColor=#000000;" edge="1" parent="WIyWlLk6GJQsqaUBKTNV-1" source="HUlqkKtKS5IJZ3lwoadS-11" target="HUlqkKtKS5IJZ3lwoadS-2">
          <mxGeometry relative="1" as="geometry">
            <Array as="points">
              <mxPoint x="690" y="770" />
              <mxPoint x="540" y="770" />
            </Array>
          </mxGeometry>
        </mxCell>
        <mxCell id="HUlqkKtKS5IJZ3lwoadS-11" value="&lt;div style=&quot;font-family: &amp;quot;JetBrains Mono&amp;quot;, monospace;&quot;&gt;&lt;pre style=&quot;&quot;&gt;&lt;span style=&quot;background-color: rgb(255, 255, 255);&quot;&gt;Index found&lt;/span&gt;&lt;/pre&gt;&lt;/div&gt;" style="shape=parallelogram;html=1;strokeWidth=2;perimeter=parallelogramPerimeter;whiteSpace=wrap;rounded=0;arcSize=12;size=0.23;labelBackgroundColor=none;" vertex="1" parent="WIyWlLk6GJQsqaUBKTNV-1">
          <mxGeometry x="640" y="320" width="100" height="60" as="geometry" />
        </mxCell>
        <mxCell id="HUlqkKtKS5IJZ3lwoadS-17" style="edgeStyle=orthogonalEdgeStyle;rounded=0;orthogonalLoop=1;jettySize=auto;html=1;exitX=0.5;exitY=1;exitDx=0;exitDy=0;entryX=0.5;entryY=1;entryDx=0;entryDy=0;entryPerimeter=0;fontColor=#000000;" edge="1" parent="WIyWlLk6GJQsqaUBKTNV-1" source="HUlqkKtKS5IJZ3lwoadS-13" target="HUlqkKtKS5IJZ3lwoadS-2">
          <mxGeometry relative="1" as="geometry" />
        </mxCell>
        <mxCell id="HUlqkKtKS5IJZ3lwoadS-13" value="&lt;div style=&quot;font-family: &amp;quot;JetBrains Mono&amp;quot;, monospace;&quot;&gt;&lt;pre style=&quot;&quot;&gt;&lt;span style=&quot;background-color: rgb(255, 255, 255);&quot;&gt;Index not found!&lt;/span&gt;&lt;/pre&gt;&lt;/div&gt;" style="shape=parallelogram;html=1;strokeWidth=2;perimeter=parallelogramPerimeter;whiteSpace=wrap;rounded=0;arcSize=12;size=0.23;labelBackgroundColor=none;" vertex="1" parent="WIyWlLk6GJQsqaUBKTNV-1">
          <mxGeometry x="485" y="670" width="110" height="80" as="geometry" />
        </mxCell>
        <mxCell id="HUlqkKtKS5IJZ3lwoadS-19" value="Yes" style="text;html=1;align=center;verticalAlign=middle;resizable=0;points=[];autosize=1;strokeColor=none;fillColor=none;fontColor=#000000;labelBackgroundColor=#FFFFFF;" vertex="1" parent="WIyWlLk6GJQsqaUBKTNV-1">
          <mxGeometry x="540" y="620" width="40" height="30" as="geometry" />
        </mxCell>
        <mxCell id="HUlqkKtKS5IJZ3lwoadS-20" value="No" style="text;html=1;align=center;verticalAlign=middle;resizable=0;points=[];autosize=1;strokeColor=none;fillColor=none;fontColor=#000000;labelBackgroundColor=#FFFFFF;" vertex="1" parent="WIyWlLk6GJQsqaUBKTNV-1">
          <mxGeometry x="414" y="500" width="40" height="30" as="geometry" />
        </mxCell>
        <mxCell id="HUlqkKtKS5IJZ3lwoadS-21" value="No" style="text;html=1;align=center;verticalAlign=middle;resizable=0;points=[];autosize=1;strokeColor=none;fillColor=none;fontColor=#000000;labelBackgroundColor=#FFFFFF;" vertex="1" parent="WIyWlLk6GJQsqaUBKTNV-1">
          <mxGeometry x="500" y="450" width="40" height="30" as="geometry" />
        </mxCell>
        <mxCell id="HUlqkKtKS5IJZ3lwoadS-22" value="Yes" style="text;html=1;align=center;verticalAlign=middle;resizable=0;points=[];autosize=1;strokeColor=none;fillColor=none;fontColor=#000000;labelBackgroundColor=#FFFFFF;" vertex="1" parent="WIyWlLk6GJQsqaUBKTNV-1">
          <mxGeometry x="600" y="320" width="40" height="30" as="geometry" />
        </mxCell>
        <mxCell id="HUlqkKtKS5IJZ3lwoadS-33" style="edgeStyle=orthogonalEdgeStyle;rounded=0;orthogonalLoop=1;jettySize=auto;html=1;exitX=0.5;exitY=1;exitDx=0;exitDy=0;exitPerimeter=0;entryX=0.5;entryY=0;entryDx=0;entryDy=0;fontColor=#000000;" edge="1" parent="WIyWlLk6GJQsqaUBKTNV-1" source="HUlqkKtKS5IJZ3lwoadS-24" target="HUlqkKtKS5IJZ3lwoadS-32">
          <mxGeometry relative="1" as="geometry" />
        </mxCell>
        <mxCell id="HUlqkKtKS5IJZ3lwoadS-24" value="&lt;div style=&quot;&quot;&gt;&lt;pre style=&quot;&quot;&gt;&lt;div style=&quot;font-family: &amp;quot;JetBrains Mono&amp;quot;, monospace;&quot;&gt;&lt;pre style=&quot;&quot;&gt;i &amp;lt; ARRAY_SIZE&lt;/pre&gt;&lt;/div&gt;&lt;/pre&gt;&lt;/div&gt;" style="strokeWidth=2;html=1;shape=mxgraph.flowchart.loop_limit;whiteSpace=wrap;rounded=0;labelBackgroundColor=none;" vertex="1" parent="WIyWlLk6GJQsqaUBKTNV-1">
          <mxGeometry x="480" y="-364" width="120" height="80" as="geometry" />
        </mxCell>
        <mxCell id="HUlqkKtKS5IJZ3lwoadS-28" style="edgeStyle=orthogonalEdgeStyle;rounded=0;orthogonalLoop=1;jettySize=auto;html=1;exitX=0.5;exitY=0;exitDx=0;exitDy=0;exitPerimeter=0;entryX=0.5;entryY=0;entryDx=0;entryDy=0;fontColor=#000000;" edge="1" parent="WIyWlLk6GJQsqaUBKTNV-1" source="HUlqkKtKS5IJZ3lwoadS-25" target="HUlqkKtKS5IJZ3lwoadS-26">
          <mxGeometry relative="1" as="geometry" />
        </mxCell>
        <mxCell id="HUlqkKtKS5IJZ3lwoadS-25" value="&lt;div style=&quot;background-color:#1e1f22;color:#a9b7c6;font-family:&#39;JetBrains Mono&#39;,monospace;font-size:12,8pt;&quot;&gt;&lt;pre&gt;i++&lt;/pre&gt;&lt;/div&gt;" style="strokeWidth=2;html=1;shape=mxgraph.flowchart.loop_limit;whiteSpace=wrap;direction=west;rounded=0;labelBackgroundColor=none;" vertex="1" parent="WIyWlLk6GJQsqaUBKTNV-1">
          <mxGeometry x="485" y="-120" width="110" height="80" as="geometry" />
        </mxCell>
        <mxCell id="HUlqkKtKS5IJZ3lwoadS-27" style="edgeStyle=orthogonalEdgeStyle;rounded=0;orthogonalLoop=1;jettySize=auto;html=1;exitX=0.5;exitY=1;exitDx=0;exitDy=0;entryX=0.5;entryY=0;entryDx=0;entryDy=0;entryPerimeter=0;fontColor=#000000;" edge="1" parent="WIyWlLk6GJQsqaUBKTNV-1" source="HUlqkKtKS5IJZ3lwoadS-26" target="HUlqkKtKS5IJZ3lwoadS-1">
          <mxGeometry relative="1" as="geometry" />
        </mxCell>
        <mxCell id="HUlqkKtKS5IJZ3lwoadS-26" value="&lt;div style=&quot;font-family: &amp;quot;JetBrains Mono&amp;quot;, monospace;&quot;&gt;&lt;pre style=&quot;&quot;&gt;&lt;div style=&quot;font-family: &amp;quot;JetBrains Mono&amp;quot;, monospace;&quot;&gt;&lt;pre style=&quot;&quot;&gt;&lt;span style=&quot;background-color: rgb(255, 255, 255);&quot;&gt;Enter index element&lt;/span&gt;&lt;/pre&gt;&lt;/div&gt;&lt;/pre&gt;&lt;/div&gt;" style="shape=parallelogram;html=1;strokeWidth=2;perimeter=parallelogramPerimeter;whiteSpace=wrap;rounded=0;arcSize=12;size=0.23;labelBackgroundColor=none;" vertex="1" parent="WIyWlLk6GJQsqaUBKTNV-1">
          <mxGeometry x="490" y="20" width="100" height="60" as="geometry" />
        </mxCell>
        <mxCell id="HUlqkKtKS5IJZ3lwoadS-31" style="edgeStyle=orthogonalEdgeStyle;rounded=0;orthogonalLoop=1;jettySize=auto;html=1;exitX=0.5;exitY=1;exitDx=0;exitDy=0;entryX=0.5;entryY=0;entryDx=0;entryDy=0;entryPerimeter=0;fontColor=#000000;" edge="1" parent="WIyWlLk6GJQsqaUBKTNV-1" source="HUlqkKtKS5IJZ3lwoadS-29" target="HUlqkKtKS5IJZ3lwoadS-24">
          <mxGeometry relative="1" as="geometry" />
        </mxCell>
        <mxCell id="HUlqkKtKS5IJZ3lwoadS-29" value="&lt;div style=&quot;font-family: &amp;quot;JetBrains Mono&amp;quot;, monospace;&quot;&gt;&lt;pre style=&quot;&quot;&gt;&lt;pre style=&quot;border-color: var(--border-color);&quot;&gt;&lt;span style=&quot;border-color: var(--border-color); background-color: rgb(255, 255, 255);&quot;&gt;Enter size array&lt;/span&gt;&lt;/pre&gt;&lt;/pre&gt;&lt;/div&gt;" style="shape=parallelogram;html=1;strokeWidth=2;perimeter=parallelogramPerimeter;whiteSpace=wrap;rounded=0;arcSize=12;size=0.23;labelBackgroundColor=none;" vertex="1" parent="WIyWlLk6GJQsqaUBKTNV-1">
          <mxGeometry x="490" y="-488" width="100" height="60" as="geometry" />
        </mxCell>
        <mxCell id="HUlqkKtKS5IJZ3lwoadS-34" style="edgeStyle=orthogonalEdgeStyle;rounded=0;orthogonalLoop=1;jettySize=auto;html=1;exitX=0.5;exitY=1;exitDx=0;exitDy=0;entryX=0.5;entryY=1;entryDx=0;entryDy=0;entryPerimeter=0;fontColor=#000000;" edge="1" parent="WIyWlLk6GJQsqaUBKTNV-1" source="HUlqkKtKS5IJZ3lwoadS-32" target="HUlqkKtKS5IJZ3lwoadS-25">
          <mxGeometry relative="1" as="geometry" />
        </mxCell>
        <mxCell id="HUlqkKtKS5IJZ3lwoadS-32" value="&lt;div style=&quot;font-family: &amp;quot;JetBrains Mono&amp;quot;, monospace;&quot;&gt;&lt;pre style=&quot;&quot;&gt;&lt;span style=&quot;background-color: rgb(255, 255, 255);&quot;&gt;array.add((int) &lt;/span&gt;&lt;/pre&gt;&lt;pre style=&quot;&quot;&gt;&lt;span style=&quot;background-color: rgb(255, 255, 255);&quot;&gt;(Math.&lt;span style=&quot;font-style: italic;&quot;&gt;random&lt;/span&gt;() &lt;/span&gt;* 100))&lt;/pre&gt;&lt;/div&gt;" style="rounded=0;whiteSpace=wrap;html=1;labelBackgroundColor=#FFFFFF;fontColor=#000000;labelBorderColor=default;" vertex="1" parent="WIyWlLk6GJQsqaUBKTNV-1">
          <mxGeometry x="480" y="-244" width="120" height="60" as="geometry" />
        </mxCell>
        <mxCell id="HUlqkKtKS5IJZ3lwoadS-35" value="End" style="strokeWidth=2;html=1;shape=mxgraph.flowchart.terminator;whiteSpace=wrap;rounded=0;labelBackgroundColor=none;" vertex="1" parent="WIyWlLk6GJQsqaUBKTNV-1">
          <mxGeometry x="480" y="960" width="120" height="50" as="geometry" />
        </mxCell>
      </root>
    </mxGraphModel>
  </diagram>
  <diagram id="Yny4dbpj1R0_1mg_gT_2" name="Ex_2">
    <mxGraphModel dx="2021" dy="762" grid="1" gridSize="10" guides="1" tooltips="1" connect="1" arrows="1" fold="1" page="1" pageScale="1" pageWidth="827" pageHeight="1169" math="0" shadow="0">
      <root>
        <mxCell id="0" />
        <mxCell id="1" parent="0" />
        <mxCell id="-k4eKPbD1Fv4IzCxjjtI-3" style="edgeStyle=orthogonalEdgeStyle;rounded=0;orthogonalLoop=1;jettySize=auto;html=1;exitX=0.5;exitY=1;exitDx=0;exitDy=0;exitPerimeter=0;entryX=0.5;entryY=0;entryDx=0;entryDy=0;fontColor=#000000;" edge="1" parent="1" source="-k4eKPbD1Fv4IzCxjjtI-1" target="-k4eKPbD1Fv4IzCxjjtI-2">
          <mxGeometry relative="1" as="geometry" />
        </mxCell>
        <mxCell id="-k4eKPbD1Fv4IzCxjjtI-1" value="&lt;div style=&quot;font-family: &amp;quot;JetBrains Mono&amp;quot;, monospace;&quot;&gt;&lt;pre style=&quot;&quot;&gt;&lt;span style=&quot;background-color: rgb(255, 255, 255);&quot;&gt;sumSymbolQueue&lt;/span&gt;&lt;/pre&gt;&lt;pre style=&quot;&quot;&gt;&lt;span style=&quot;background-color: rgb(255, 255, 255);&quot;&gt;(Tree root)&lt;/span&gt;&lt;/pre&gt;&lt;/div&gt;" style="strokeWidth=2;html=1;shape=mxgraph.flowchart.start_1;whiteSpace=wrap;labelBackgroundColor=#FFFFFF;labelBorderColor=default;fontColor=#000000;" vertex="1" parent="1">
          <mxGeometry x="364" y="50" width="156" height="90" as="geometry" />
        </mxCell>
        <mxCell id="-k4eKPbD1Fv4IzCxjjtI-15" style="edgeStyle=orthogonalEdgeStyle;rounded=0;orthogonalLoop=1;jettySize=auto;html=1;exitX=0.5;exitY=1;exitDx=0;exitDy=0;entryX=0.5;entryY=0;entryDx=0;entryDy=0;entryPerimeter=0;fontColor=#000000;" edge="1" parent="1" source="-k4eKPbD1Fv4IzCxjjtI-2" target="-k4eKPbD1Fv4IzCxjjtI-4">
          <mxGeometry relative="1" as="geometry" />
        </mxCell>
        <mxCell id="-k4eKPbD1Fv4IzCxjjtI-2" value="&lt;div style=&quot;font-family: &amp;quot;JetBrains Mono&amp;quot;, monospace;&quot;&gt;&lt;pre style=&quot;&quot;&gt;&lt;div style=&quot;&quot;&gt;&lt;span style=&quot;font-family: &amp;quot;JetBrains Mono&amp;quot;, monospace; white-space: normal;&quot;&gt;Queue&amp;lt;Tree&amp;gt; queue = new LinkedList&amp;lt;&amp;gt;();&lt;/span&gt;&lt;/div&gt;&lt;span style=&quot;background-color: rgb(255, 255, 255);&quot;&gt;&lt;div style=&quot;&quot;&gt;&lt;span style=&quot;font-family: &amp;quot;JetBrains Mono&amp;quot;, monospace; white-space: normal;&quot;&gt;queue.add(root);&lt;/span&gt;&lt;/div&gt;&lt;/span&gt;&lt;/pre&gt;&lt;/div&gt;" style="rounded=0;whiteSpace=wrap;html=1;labelBackgroundColor=#FFFFFF;labelBorderColor=default;fontColor=#000000;align=center;" vertex="1" parent="1">
          <mxGeometry x="363" y="180" width="158" height="90" as="geometry" />
        </mxCell>
        <mxCell id="-k4eKPbD1Fv4IzCxjjtI-14" style="edgeStyle=orthogonalEdgeStyle;rounded=0;orthogonalLoop=1;jettySize=auto;html=1;exitX=0.5;exitY=1;exitDx=0;exitDy=0;exitPerimeter=0;entryX=0.5;entryY=0;entryDx=0;entryDy=0;fontColor=#000000;" edge="1" parent="1" source="-k4eKPbD1Fv4IzCxjjtI-4" target="-k4eKPbD1Fv4IzCxjjtI-6">
          <mxGeometry relative="1" as="geometry" />
        </mxCell>
        <mxCell id="-k4eKPbD1Fv4IzCxjjtI-4" value="&lt;div style=&quot;font-family: &amp;quot;JetBrains Mono&amp;quot;, monospace;&quot;&gt;&lt;pre style=&quot;&quot;&gt;&lt;span style=&quot;background-color: rgb(255, 255, 255);&quot;&gt;!queue.isEmpty()&lt;/span&gt;&lt;/pre&gt;&lt;/div&gt;" style="strokeWidth=2;html=1;shape=mxgraph.flowchart.loop_limit;whiteSpace=wrap;labelBackgroundColor=#FFFFFF;labelBorderColor=default;fontColor=#000000;" vertex="1" parent="1">
          <mxGeometry x="370.5" y="320" width="143" height="80" as="geometry" />
        </mxCell>
        <mxCell id="gVlKzue5E1cBb2MwclVE-6" style="edgeStyle=orthogonalEdgeStyle;rounded=0;orthogonalLoop=1;jettySize=auto;html=1;exitX=0.5;exitY=0;exitDx=0;exitDy=0;exitPerimeter=0;entryX=0.5;entryY=0;entryDx=0;entryDy=0;fontFamily=Times New Roman;fontSize=12;fontColor=#000000;" edge="1" parent="1" source="-k4eKPbD1Fv4IzCxjjtI-5" target="gVlKzue5E1cBb2MwclVE-5">
          <mxGeometry relative="1" as="geometry" />
        </mxCell>
        <mxCell id="-k4eKPbD1Fv4IzCxjjtI-5" value="End while" style="strokeWidth=2;html=1;shape=mxgraph.flowchart.loop_limit;whiteSpace=wrap;labelBackgroundColor=#FFFFFF;labelBorderColor=default;fontColor=#000000;direction=west;" vertex="1" parent="1">
          <mxGeometry x="378" y="900" width="128" height="80" as="geometry" />
        </mxCell>
        <mxCell id="-k4eKPbD1Fv4IzCxjjtI-13" style="edgeStyle=orthogonalEdgeStyle;rounded=0;orthogonalLoop=1;jettySize=auto;html=1;exitX=0.5;exitY=1;exitDx=0;exitDy=0;entryX=0.5;entryY=0;entryDx=0;entryDy=0;fontColor=#000000;" edge="1" parent="1" source="-k4eKPbD1Fv4IzCxjjtI-6" target="-k4eKPbD1Fv4IzCxjjtI-7">
          <mxGeometry relative="1" as="geometry" />
        </mxCell>
        <mxCell id="-k4eKPbD1Fv4IzCxjjtI-6" value="&lt;div style=&quot;font-family: &amp;quot;JetBrains Mono&amp;quot;, monospace;&quot;&gt;&lt;pre style=&quot;&quot;&gt;&lt;div style=&quot;&quot;&gt;&lt;div style=&quot;font-family: &amp;quot;JetBrains Mono&amp;quot;, monospace;&quot;&gt;&lt;pre style=&quot;&quot;&gt;&lt;div style=&quot;&quot;&gt;&lt;span style=&quot;background-color: rgb(255, 255, 255);&quot;&gt;&lt;span style=&quot;font-family: &amp;quot;JetBrains Mono&amp;quot;, monospace; white-space: normal;&quot;&gt;Tree node = queue.remove()&lt;/span&gt;&lt;span style=&quot;font-family: &amp;quot;JetBrains Mono&amp;quot;, monospace; white-space: normal;&quot;&gt;;&lt;/span&gt;&lt;/span&gt;&lt;/div&gt;&lt;div style=&quot;&quot;&gt;&lt;span style=&quot;background-color: rgb(255, 255, 255);&quot;&gt;&lt;span style=&quot;font-family: &amp;quot;JetBrains Mono&amp;quot;, monospace; white-space: normal;&quot;&gt;sumLine.append&lt;/span&gt;&lt;/span&gt;&lt;/div&gt;&lt;div style=&quot;&quot;&gt;&lt;span style=&quot;background-color: rgb(255, 255, 255);&quot;&gt;&lt;span style=&quot;font-family: &amp;quot;JetBrains Mono&amp;quot;, monospace; white-space: normal;&quot;&gt;(node.&lt;/span&gt;&lt;span style=&quot;font-family: &amp;quot;JetBrains Mono&amp;quot;, monospace; white-space: normal;&quot;&gt;symbol&lt;/span&gt;&lt;span style=&quot;font-family: &amp;quot;JetBrains Mono&amp;quot;, monospace; white-space: normal;&quot;&gt;).append(&lt;/span&gt;&lt;span style=&quot;font-family: &amp;quot;JetBrains Mono&amp;quot;, monospace; white-space: normal;&quot;&gt;&quot; &quot;&lt;/span&gt;&lt;span style=&quot;font-family: &amp;quot;JetBrains Mono&amp;quot;, monospace; white-space: normal;&quot;&gt;)&lt;/span&gt;&lt;span style=&quot;font-family: &amp;quot;JetBrains Mono&amp;quot;, monospace; white-space: normal;&quot;&gt;;&lt;/span&gt;&lt;/span&gt;&lt;/div&gt;&lt;/pre&gt;&lt;/div&gt;&lt;/div&gt;&lt;/pre&gt;&lt;/div&gt;" style="rounded=0;whiteSpace=wrap;html=1;labelBackgroundColor=#FFFFFF;labelBorderColor=default;fontColor=#000000;align=left;" vertex="1" parent="1">
          <mxGeometry x="349" y="430" width="186" height="100" as="geometry" />
        </mxCell>
        <mxCell id="-k4eKPbD1Fv4IzCxjjtI-10" style="edgeStyle=orthogonalEdgeStyle;rounded=0;orthogonalLoop=1;jettySize=auto;html=1;exitX=1;exitY=0.5;exitDx=0;exitDy=0;entryX=0;entryY=0.5;entryDx=0;entryDy=0;fontColor=#000000;" edge="1" parent="1" source="-k4eKPbD1Fv4IzCxjjtI-7" target="-k4eKPbD1Fv4IzCxjjtI-8">
          <mxGeometry relative="1" as="geometry" />
        </mxCell>
        <mxCell id="-k4eKPbD1Fv4IzCxjjtI-12" style="edgeStyle=orthogonalEdgeStyle;rounded=0;orthogonalLoop=1;jettySize=auto;html=1;exitX=0.5;exitY=1;exitDx=0;exitDy=0;entryX=0.5;entryY=0;entryDx=0;entryDy=0;fontColor=#000000;" edge="1" parent="1" source="-k4eKPbD1Fv4IzCxjjtI-7" target="-k4eKPbD1Fv4IzCxjjtI-9">
          <mxGeometry relative="1" as="geometry" />
        </mxCell>
        <mxCell id="-k4eKPbD1Fv4IzCxjjtI-7" value="&lt;div style=&quot;&quot;&gt;&lt;pre style=&quot;text-align: justify;&quot;&gt;&lt;span style=&quot;background-color: rgb(255, 255, 255);&quot;&gt;&lt;font face=&quot;Times New Roman&quot; style=&quot;font-size: 12px;&quot;&gt;node.left != null&lt;/font&gt;&lt;/span&gt;&lt;/pre&gt;&lt;/div&gt;" style="rhombus;whiteSpace=wrap;html=1;labelBackgroundColor=#FFFFFF;labelBorderColor=default;fontColor=#000000;align=right;" vertex="1" parent="1">
          <mxGeometry x="402" y="570" width="80" height="80" as="geometry" />
        </mxCell>
        <mxCell id="-k4eKPbD1Fv4IzCxjjtI-11" style="edgeStyle=orthogonalEdgeStyle;rounded=0;orthogonalLoop=1;jettySize=auto;html=1;exitX=0.5;exitY=1;exitDx=0;exitDy=0;entryX=0.5;entryY=0;entryDx=0;entryDy=0;fontColor=#000000;" edge="1" parent="1" source="-k4eKPbD1Fv4IzCxjjtI-8" target="-k4eKPbD1Fv4IzCxjjtI-9">
          <mxGeometry relative="1" as="geometry" />
        </mxCell>
        <mxCell id="-k4eKPbD1Fv4IzCxjjtI-8" value="&lt;div style=&quot;font-family: &amp;quot;JetBrains Mono&amp;quot;, monospace;&quot;&gt;&lt;pre style=&quot;&quot;&gt;&lt;span style=&quot;background-color: rgb(255, 255, 255);&quot;&gt;queue.add(node.left);&lt;/span&gt;&lt;/pre&gt;&lt;/div&gt;" style="rounded=0;whiteSpace=wrap;html=1;labelBackgroundColor=#FFFFFF;labelBorderColor=default;fontColor=#000000;align=left;" vertex="1" parent="1">
          <mxGeometry x="540" y="580" width="120" height="60" as="geometry" />
        </mxCell>
        <mxCell id="-k4eKPbD1Fv4IzCxjjtI-17" style="edgeStyle=orthogonalEdgeStyle;rounded=0;orthogonalLoop=1;jettySize=auto;html=1;exitX=0.5;exitY=1;exitDx=0;exitDy=0;entryX=0.5;entryY=0;entryDx=0;entryDy=0;fontColor=#000000;" edge="1" parent="1" source="-k4eKPbD1Fv4IzCxjjtI-9" target="-k4eKPbD1Fv4IzCxjjtI-16">
          <mxGeometry relative="1" as="geometry" />
        </mxCell>
        <mxCell id="-k4eKPbD1Fv4IzCxjjtI-18" style="edgeStyle=orthogonalEdgeStyle;rounded=0;orthogonalLoop=1;jettySize=auto;html=1;exitX=0;exitY=0.5;exitDx=0;exitDy=0;entryX=0.5;entryY=0;entryDx=0;entryDy=0;entryPerimeter=0;fontColor=#000000;" edge="1" parent="1" source="-k4eKPbD1Fv4IzCxjjtI-9" target="-k4eKPbD1Fv4IzCxjjtI-4">
          <mxGeometry relative="1" as="geometry">
            <Array as="points">
              <mxPoint x="340" y="730" />
              <mxPoint x="340" y="300" />
              <mxPoint x="442" y="300" />
            </Array>
          </mxGeometry>
        </mxCell>
        <mxCell id="-k4eKPbD1Fv4IzCxjjtI-9" value="&lt;pre style=&quot;border-color: var(--border-color); text-align: justify;&quot;&gt;&lt;span style=&quot;border-color: var(--border-color);&quot;&gt;&lt;font style=&quot;border-color: var(--border-color);&quot; face=&quot;Times New Roman&quot;&gt;node.right != null&lt;/font&gt;&lt;/span&gt;&lt;/pre&gt;" style="rhombus;whiteSpace=wrap;html=1;labelBackgroundColor=#FFFFFF;labelBorderColor=default;fontColor=#000000;" vertex="1" parent="1">
          <mxGeometry x="402" y="690" width="80" height="80" as="geometry" />
        </mxCell>
        <mxCell id="-k4eKPbD1Fv4IzCxjjtI-19" style="edgeStyle=orthogonalEdgeStyle;rounded=0;orthogonalLoop=1;jettySize=auto;html=1;exitX=0.5;exitY=1;exitDx=0;exitDy=0;entryX=0.5;entryY=0;entryDx=0;entryDy=0;entryPerimeter=0;fontColor=#000000;" edge="1" parent="1" source="-k4eKPbD1Fv4IzCxjjtI-16" target="-k4eKPbD1Fv4IzCxjjtI-4">
          <mxGeometry relative="1" as="geometry">
            <Array as="points">
              <mxPoint x="442" y="880" />
              <mxPoint x="340" y="880" />
              <mxPoint x="340" y="300" />
              <mxPoint x="442" y="300" />
            </Array>
          </mxGeometry>
        </mxCell>
        <mxCell id="-k4eKPbD1Fv4IzCxjjtI-22" style="edgeStyle=orthogonalEdgeStyle;rounded=0;orthogonalLoop=1;jettySize=auto;html=1;exitX=0.5;exitY=1;exitDx=0;exitDy=0;entryX=0.5;entryY=1;entryDx=0;entryDy=0;entryPerimeter=0;fontColor=#000000;" edge="1" parent="1" source="-k4eKPbD1Fv4IzCxjjtI-16" target="-k4eKPbD1Fv4IzCxjjtI-5">
          <mxGeometry relative="1" as="geometry" />
        </mxCell>
        <mxCell id="-k4eKPbD1Fv4IzCxjjtI-16" value="&lt;pre style=&quot;border-color: var(--border-color); text-align: left;&quot;&gt;&lt;span style=&quot;border-color: var(--border-color);&quot;&gt;queue.add(node.right);&lt;/span&gt;&lt;/pre&gt;" style="rounded=0;whiteSpace=wrap;html=1;labelBackgroundColor=#FFFFFF;labelBorderColor=default;fontColor=#000000;" vertex="1" parent="1">
          <mxGeometry x="382" y="800" width="120" height="60" as="geometry" />
        </mxCell>
        <mxCell id="gVlKzue5E1cBb2MwclVE-1" value="Yes" style="text;html=1;align=center;verticalAlign=middle;resizable=0;points=[];autosize=1;strokeColor=none;fillColor=none;fontColor=#000000;labelBackgroundColor=#FFFFFF;" vertex="1" parent="1">
          <mxGeometry x="482" y="580" width="40" height="30" as="geometry" />
        </mxCell>
        <mxCell id="gVlKzue5E1cBb2MwclVE-2" value="Yes" style="text;html=1;align=center;verticalAlign=middle;resizable=0;points=[];autosize=1;strokeColor=none;fillColor=none;fontColor=#000000;labelBackgroundColor=#FFFFFF;" vertex="1" parent="1">
          <mxGeometry x="442" y="770" width="40" height="30" as="geometry" />
        </mxCell>
        <mxCell id="gVlKzue5E1cBb2MwclVE-3" value="No" style="text;html=1;align=center;verticalAlign=middle;resizable=0;points=[];autosize=1;strokeColor=none;fillColor=none;fontColor=#000000;labelBackgroundColor=#FFFFFF;" vertex="1" parent="1">
          <mxGeometry x="364" y="700" width="40" height="30" as="geometry" />
        </mxCell>
        <mxCell id="gVlKzue5E1cBb2MwclVE-4" value="No" style="text;html=1;align=center;verticalAlign=middle;resizable=0;points=[];autosize=1;strokeColor=none;fillColor=none;fontColor=#000000;labelBackgroundColor=#FFFFFF;" vertex="1" parent="1">
          <mxGeometry x="402" y="650" width="40" height="30" as="geometry" />
        </mxCell>
        <mxCell id="gVlKzue5E1cBb2MwclVE-5" value="&lt;div style=&quot;font-family: &amp;quot;JetBrains Mono&amp;quot;, monospace;&quot;&gt;&lt;pre style=&quot;&quot;&gt;&lt;span style=&quot;background-color: rgb(255, 255, 255);&quot;&gt;return sumLine.toString();&lt;/span&gt;&lt;/pre&gt;&lt;/div&gt;" style="ellipse;whiteSpace=wrap;html=1;labelBackgroundColor=#FFFFFF;labelBorderColor=default;fontFamily=Times New Roman;fontSize=12;fontColor=#000000;align=left;" vertex="1" parent="1">
          <mxGeometry x="348" y="1020" width="188" height="90" as="geometry" />
        </mxCell>
        <mxCell id="gVlKzue5E1cBb2MwclVE-43" style="edgeStyle=orthogonalEdgeStyle;rounded=0;orthogonalLoop=1;jettySize=auto;html=1;exitX=0.5;exitY=1;exitDx=0;exitDy=0;exitPerimeter=0;entryX=0.5;entryY=0;entryDx=0;entryDy=0;fontFamily=Times New Roman;fontSize=12;fontColor=#000000;" edge="1" parent="1" source="gVlKzue5E1cBb2MwclVE-8" target="gVlKzue5E1cBb2MwclVE-33">
          <mxGeometry relative="1" as="geometry" />
        </mxCell>
        <mxCell id="gVlKzue5E1cBb2MwclVE-8" value="&lt;div style=&quot;font-family: &amp;quot;JetBrains Mono&amp;quot;, monospace;&quot;&gt;&lt;pre style=&quot;&quot;&gt;&lt;span style=&quot;background-color: rgb(255, 255, 255);&quot;&gt;sumSymbolQueue&lt;/span&gt;()&lt;/pre&gt;&lt;/div&gt;" style="strokeWidth=2;html=1;shape=mxgraph.flowchart.start_1;whiteSpace=wrap;labelBackgroundColor=#FFFFFF;labelBorderColor=default;fontColor=#000000;" vertex="1" parent="1">
          <mxGeometry x="-78" y="270" width="156" height="90" as="geometry" />
        </mxCell>
        <mxCell id="gVlKzue5E1cBb2MwclVE-32" value="&lt;div style=&quot;font-family: &amp;quot;JetBrains Mono&amp;quot;, monospace;&quot;&gt;&lt;pre style=&quot;&quot;&gt;&lt;span style=&quot;background-color: rgb(255, 255, 255);&quot;&gt;return sumLine;&lt;/span&gt;&lt;/pre&gt;&lt;/div&gt;" style="ellipse;whiteSpace=wrap;html=1;labelBackgroundColor=#FFFFFF;labelBorderColor=default;fontFamily=Times New Roman;fontSize=12;fontColor=#000000;align=center;" vertex="1" parent="1">
          <mxGeometry x="-94" y="720" width="188" height="90" as="geometry" />
        </mxCell>
        <mxCell id="gVlKzue5E1cBb2MwclVE-35" style="edgeStyle=orthogonalEdgeStyle;rounded=0;orthogonalLoop=1;jettySize=auto;html=1;exitX=0.5;exitY=1;exitDx=0;exitDy=0;entryX=0.5;entryY=0;entryDx=0;entryDy=0;fontFamily=Times New Roman;fontSize=12;fontColor=#000000;" edge="1" parent="1" source="gVlKzue5E1cBb2MwclVE-33" target="gVlKzue5E1cBb2MwclVE-34">
          <mxGeometry relative="1" as="geometry" />
        </mxCell>
        <mxCell id="gVlKzue5E1cBb2MwclVE-40" style="edgeStyle=orthogonalEdgeStyle;rounded=0;orthogonalLoop=1;jettySize=auto;html=1;exitX=1;exitY=0.5;exitDx=0;exitDy=0;entryX=0;entryY=0.5;entryDx=0;entryDy=0;fontFamily=Times New Roman;fontSize=12;fontColor=#000000;" edge="1" parent="1" source="gVlKzue5E1cBb2MwclVE-33" target="gVlKzue5E1cBb2MwclVE-37">
          <mxGeometry relative="1" as="geometry" />
        </mxCell>
        <mxCell id="gVlKzue5E1cBb2MwclVE-33" value="&lt;div style=&quot;&quot;&gt;&lt;pre style=&quot;&quot;&gt;&lt;span style=&quot;background-color: rgb(255, 255, 255);&quot;&gt;&lt;font face=&quot;Times New Roman&quot; style=&quot;font-size: 12px;&quot;&gt;left != null&lt;/font&gt;&lt;/span&gt;&lt;/pre&gt;&lt;/div&gt;" style="rhombus;whiteSpace=wrap;html=1;labelBackgroundColor=#FFFFFF;labelBorderColor=default;fontColor=#000000;align=center;" vertex="1" parent="1">
          <mxGeometry x="-40" y="420" width="80" height="80" as="geometry" />
        </mxCell>
        <mxCell id="gVlKzue5E1cBb2MwclVE-36" style="edgeStyle=orthogonalEdgeStyle;rounded=0;orthogonalLoop=1;jettySize=auto;html=1;exitX=0.5;exitY=1;exitDx=0;exitDy=0;entryX=0.5;entryY=0;entryDx=0;entryDy=0;fontFamily=Times New Roman;fontSize=12;fontColor=#000000;" edge="1" parent="1" source="gVlKzue5E1cBb2MwclVE-34" target="gVlKzue5E1cBb2MwclVE-32">
          <mxGeometry relative="1" as="geometry" />
        </mxCell>
        <mxCell id="gVlKzue5E1cBb2MwclVE-39" style="edgeStyle=orthogonalEdgeStyle;rounded=0;orthogonalLoop=1;jettySize=auto;html=1;exitX=1;exitY=0.5;exitDx=0;exitDy=0;entryX=0;entryY=0.5;entryDx=0;entryDy=0;fontFamily=Times New Roman;fontSize=12;fontColor=#000000;" edge="1" parent="1" source="gVlKzue5E1cBb2MwclVE-34" target="gVlKzue5E1cBb2MwclVE-38">
          <mxGeometry relative="1" as="geometry" />
        </mxCell>
        <mxCell id="gVlKzue5E1cBb2MwclVE-34" value="&lt;pre style=&quot;border-color: var(--border-color); text-align: justify;&quot;&gt;&lt;span style=&quot;border-color: var(--border-color);&quot;&gt;&lt;font style=&quot;border-color: var(--border-color);&quot; face=&quot;Times New Roman&quot;&gt;right != null&lt;/font&gt;&lt;/span&gt;&lt;/pre&gt;" style="rhombus;whiteSpace=wrap;html=1;labelBackgroundColor=#FFFFFF;labelBorderColor=default;fontColor=#000000;" vertex="1" parent="1">
          <mxGeometry x="-40" y="560" width="80" height="80" as="geometry" />
        </mxCell>
        <mxCell id="gVlKzue5E1cBb2MwclVE-41" style="edgeStyle=orthogonalEdgeStyle;rounded=0;orthogonalLoop=1;jettySize=auto;html=1;exitX=0.5;exitY=1;exitDx=0;exitDy=0;entryX=0.5;entryY=0;entryDx=0;entryDy=0;entryPerimeter=0;fontFamily=Times New Roman;fontSize=12;fontColor=#000000;" edge="1" parent="1" source="gVlKzue5E1cBb2MwclVE-37" target="gVlKzue5E1cBb2MwclVE-8">
          <mxGeometry relative="1" as="geometry">
            <Array as="points">
              <mxPoint x="140" y="510" />
              <mxPoint x="240" y="510" />
              <mxPoint x="240" y="250" />
              <mxPoint y="250" />
            </Array>
          </mxGeometry>
        </mxCell>
        <mxCell id="gVlKzue5E1cBb2MwclVE-48" style="edgeStyle=orthogonalEdgeStyle;rounded=0;orthogonalLoop=1;jettySize=auto;html=1;exitX=0.5;exitY=1;exitDx=0;exitDy=0;entryX=0.5;entryY=0;entryDx=0;entryDy=0;fontFamily=Times New Roman;fontSize=12;fontColor=#000000;" edge="1" parent="1" source="gVlKzue5E1cBb2MwclVE-37" target="gVlKzue5E1cBb2MwclVE-34">
          <mxGeometry relative="1" as="geometry" />
        </mxCell>
        <mxCell id="gVlKzue5E1cBb2MwclVE-37" value="&lt;div style=&quot;font-family: &amp;quot;JetBrains Mono&amp;quot;, monospace;&quot;&gt;&lt;pre style=&quot;&quot;&gt;&lt;div style=&quot;font-family: &amp;quot;JetBrains Mono&amp;quot;, monospace;&quot;&gt;&lt;pre style=&quot;&quot;&gt;&lt;span style=&quot;background-color: rgb(255, 255, 255);&quot;&gt;sumLine += left.sumSymbolStack();&lt;/span&gt;&lt;/pre&gt;&lt;/div&gt;&lt;/pre&gt;&lt;/div&gt;" style="rounded=0;whiteSpace=wrap;html=1;labelBackgroundColor=#FFFFFF;labelBorderColor=default;fontColor=#000000;align=left;" vertex="1" parent="1">
          <mxGeometry x="80" y="430" width="120" height="60" as="geometry" />
        </mxCell>
        <mxCell id="gVlKzue5E1cBb2MwclVE-42" style="edgeStyle=orthogonalEdgeStyle;rounded=0;orthogonalLoop=1;jettySize=auto;html=1;exitX=0.5;exitY=1;exitDx=0;exitDy=0;entryX=0.5;entryY=0;entryDx=0;entryDy=0;entryPerimeter=0;fontFamily=Times New Roman;fontSize=12;fontColor=#000000;" edge="1" parent="1" source="gVlKzue5E1cBb2MwclVE-38" target="gVlKzue5E1cBb2MwclVE-8">
          <mxGeometry relative="1" as="geometry">
            <Array as="points">
              <mxPoint x="140" y="650" />
              <mxPoint x="240" y="650" />
              <mxPoint x="240" y="250" />
              <mxPoint y="250" />
            </Array>
          </mxGeometry>
        </mxCell>
        <mxCell id="gVlKzue5E1cBb2MwclVE-49" style="edgeStyle=orthogonalEdgeStyle;rounded=0;orthogonalLoop=1;jettySize=auto;html=1;exitX=0.5;exitY=1;exitDx=0;exitDy=0;entryX=0.5;entryY=0;entryDx=0;entryDy=0;fontFamily=Times New Roman;fontSize=12;fontColor=#000000;" edge="1" parent="1" source="gVlKzue5E1cBb2MwclVE-38" target="gVlKzue5E1cBb2MwclVE-32">
          <mxGeometry relative="1" as="geometry" />
        </mxCell>
        <mxCell id="gVlKzue5E1cBb2MwclVE-38" value="&lt;div style=&quot;font-family: &amp;quot;JetBrains Mono&amp;quot;, monospace;&quot;&gt;&lt;pre style=&quot;&quot;&gt;&lt;pre style=&quot;border-color: var(--border-color);&quot;&gt;&lt;span style=&quot;border-color: var(--border-color);&quot;&gt;sumLine += right.sumSymbolStack();&lt;/span&gt;&lt;/pre&gt;&lt;/pre&gt;&lt;/div&gt;" style="rounded=0;whiteSpace=wrap;html=1;labelBackgroundColor=#FFFFFF;labelBorderColor=default;fontColor=#000000;align=left;" vertex="1" parent="1">
          <mxGeometry x="80" y="570" width="120" height="60" as="geometry" />
        </mxCell>
        <mxCell id="gVlKzue5E1cBb2MwclVE-44" value="Yes" style="text;html=1;align=center;verticalAlign=middle;resizable=0;points=[];autosize=1;strokeColor=none;fillColor=none;fontColor=#000000;labelBackgroundColor=#FFFFFF;" vertex="1" parent="1">
          <mxGeometry x="38" y="430" width="40" height="30" as="geometry" />
        </mxCell>
        <mxCell id="gVlKzue5E1cBb2MwclVE-45" value="Yes" style="text;html=1;align=center;verticalAlign=middle;resizable=0;points=[];autosize=1;strokeColor=none;fillColor=none;fontColor=#000000;labelBackgroundColor=#FFFFFF;" vertex="1" parent="1">
          <mxGeometry x="40" y="570" width="40" height="30" as="geometry" />
        </mxCell>
        <mxCell id="gVlKzue5E1cBb2MwclVE-46" value="No" style="text;html=1;align=center;verticalAlign=middle;resizable=0;points=[];autosize=1;strokeColor=none;fillColor=none;fontColor=#000000;labelBackgroundColor=#FFFFFF;" vertex="1" parent="1">
          <mxGeometry x="-40" y="510" width="40" height="30" as="geometry" />
        </mxCell>
        <mxCell id="gVlKzue5E1cBb2MwclVE-47" value="No" style="text;html=1;align=center;verticalAlign=middle;resizable=0;points=[];autosize=1;strokeColor=none;fillColor=none;fontColor=#000000;labelBackgroundColor=#FFFFFF;" vertex="1" parent="1">
          <mxGeometry x="-40" y="660" width="40" height="30" as="geometry" />
        </mxCell>
      </root>
    </mxGraphModel>
  </diagram>
  <diagram id="AIQfDa0tu8GHrdoazGeI" name="Ex_4">
    <mxGraphModel dx="1194" dy="1931" grid="1" gridSize="10" guides="1" tooltips="1" connect="1" arrows="1" fold="1" page="1" pageScale="1" pageWidth="827" pageHeight="1169" math="0" shadow="0">
      <root>
        <mxCell id="0" />
        <mxCell id="1" parent="0" />
        <mxCell id="Il8UtVw0Otbt6--CLPO0-6" style="edgeStyle=orthogonalEdgeStyle;rounded=0;orthogonalLoop=1;jettySize=auto;html=1;exitX=0.5;exitY=1;exitDx=0;exitDy=0;entryX=0.5;entryY=0;entryDx=0;entryDy=0;fontFamily=Times New Roman;fontSize=12;fontColor=#000000;" edge="1" parent="1" source="Il8UtVw0Otbt6--CLPO0-1" target="Il8UtVw0Otbt6--CLPO0-2">
          <mxGeometry relative="1" as="geometry" />
        </mxCell>
        <mxCell id="Il8UtVw0Otbt6--CLPO0-23" style="edgeStyle=orthogonalEdgeStyle;rounded=0;orthogonalLoop=1;jettySize=auto;html=1;exitX=0.5;exitY=1;exitDx=0;exitDy=0;fontFamily=Times New Roman;fontSize=12;fontColor=#000000;entryX=0.5;entryY=0;entryDx=0;entryDy=0;" edge="1" parent="1" source="Il8UtVw0Otbt6--CLPO0-1" target="Il8UtVw0Otbt6--CLPO0-14">
          <mxGeometry relative="1" as="geometry">
            <mxPoint x="420" y="860" as="targetPoint" />
            <Array as="points">
              <mxPoint x="420" y="210" />
              <mxPoint x="280" y="210" />
              <mxPoint x="280" y="820" />
              <mxPoint x="420" y="820" />
            </Array>
          </mxGeometry>
        </mxCell>
        <mxCell id="Il8UtVw0Otbt6--CLPO0-1" value="&lt;div style=&quot;font-family: &amp;quot;JetBrains Mono&amp;quot;, monospace;&quot;&gt;&lt;pre style=&quot;&quot;&gt;&lt;span style=&quot;background-color: rgb(255, 255, 255);&quot;&gt;openSymbol &amp;gt;= 0 &lt;/span&gt;&lt;/pre&gt;&lt;pre style=&quot;&quot;&gt;&lt;span style=&quot;background-color: rgb(255, 255, 255);&quot;&gt;&amp;amp;&amp;amp; &lt;/span&gt;closeSymbol &amp;gt;= 0&lt;/pre&gt;&lt;/div&gt;" style="rhombus;whiteSpace=wrap;html=1;labelBackgroundColor=#FFFFFF;labelBorderColor=default;fontFamily=Times New Roman;fontSize=12;fontColor=#000000;align=center;" vertex="1" parent="1">
          <mxGeometry x="360" y="80" width="120" height="120" as="geometry" />
        </mxCell>
        <mxCell id="Il8UtVw0Otbt6--CLPO0-10" style="edgeStyle=orthogonalEdgeStyle;rounded=0;orthogonalLoop=1;jettySize=auto;html=1;exitX=0.5;exitY=1;exitDx=0;exitDy=0;entryX=0.5;entryY=0;entryDx=0;entryDy=0;fontFamily=Times New Roman;fontSize=12;fontColor=#000000;" edge="1" parent="1" source="Il8UtVw0Otbt6--CLPO0-2" target="Il8UtVw0Otbt6--CLPO0-9">
          <mxGeometry relative="1" as="geometry" />
        </mxCell>
        <mxCell id="Il8UtVw0Otbt6--CLPO0-11" style="edgeStyle=orthogonalEdgeStyle;rounded=0;orthogonalLoop=1;jettySize=auto;html=1;exitX=0.5;exitY=1;exitDx=0;exitDy=0;entryX=0.5;entryY=0;entryDx=0;entryDy=0;fontFamily=Times New Roman;fontSize=12;fontColor=#000000;" edge="1" parent="1" source="Il8UtVw0Otbt6--CLPO0-2" target="Il8UtVw0Otbt6--CLPO0-3">
          <mxGeometry relative="1" as="geometry">
            <Array as="points">
              <mxPoint x="520" y="360" />
              <mxPoint x="520" y="500" />
              <mxPoint x="420" y="500" />
            </Array>
          </mxGeometry>
        </mxCell>
        <mxCell id="Il8UtVw0Otbt6--CLPO0-2" value="&lt;pre style=&quot;border-color: var(--border-color);&quot;&gt;&lt;span style=&quot;border-color: var(--border-color);&quot;&gt;openSymbol &amp;lt; &lt;/span&gt;closeSymbol&lt;/pre&gt;" style="rhombus;whiteSpace=wrap;html=1;labelBackgroundColor=#FFFFFF;labelBorderColor=default;fontFamily=Times New Roman;fontSize=12;fontColor=#000000;" vertex="1" parent="1">
          <mxGeometry x="360" y="240" width="120" height="120" as="geometry" />
        </mxCell>
        <mxCell id="Il8UtVw0Otbt6--CLPO0-16" style="edgeStyle=orthogonalEdgeStyle;rounded=0;orthogonalLoop=1;jettySize=auto;html=1;exitX=0.5;exitY=1;exitDx=0;exitDy=0;entryX=0.5;entryY=0;entryDx=0;entryDy=0;fontFamily=Times New Roman;fontSize=12;fontColor=#000000;" edge="1" parent="1" source="Il8UtVw0Otbt6--CLPO0-3" target="Il8UtVw0Otbt6--CLPO0-15">
          <mxGeometry relative="1" as="geometry" />
        </mxCell>
        <mxCell id="Il8UtVw0Otbt6--CLPO0-18" style="edgeStyle=orthogonalEdgeStyle;rounded=0;orthogonalLoop=1;jettySize=auto;html=1;exitX=0.5;exitY=1;exitDx=0;exitDy=0;entryX=0.5;entryY=0;entryDx=0;entryDy=0;fontFamily=Times New Roman;fontSize=12;fontColor=#000000;" edge="1" parent="1" source="Il8UtVw0Otbt6--CLPO0-3" target="Il8UtVw0Otbt6--CLPO0-14">
          <mxGeometry relative="1" as="geometry">
            <Array as="points">
              <mxPoint x="420" y="650" />
              <mxPoint x="280" y="650" />
              <mxPoint x="280" y="820" />
              <mxPoint x="420" y="820" />
            </Array>
          </mxGeometry>
        </mxCell>
        <mxCell id="Il8UtVw0Otbt6--CLPO0-3" value="&lt;pre style=&quot;border-color: var(--border-color);&quot;&gt;&lt;span style=&quot;border-color: var(--border-color);&quot;&gt;openSymbol &amp;gt; &lt;/span&gt;closeSymbol&lt;/pre&gt;" style="rhombus;whiteSpace=wrap;html=1;labelBackgroundColor=#FFFFFF;labelBorderColor=default;fontFamily=Times New Roman;fontSize=12;fontColor=#000000;" vertex="1" parent="1">
          <mxGeometry x="360" y="520" width="120" height="120" as="geometry" />
        </mxCell>
        <mxCell id="Il8UtVw0Otbt6--CLPO0-5" style="edgeStyle=orthogonalEdgeStyle;rounded=0;orthogonalLoop=1;jettySize=auto;html=1;exitX=0.5;exitY=1;exitDx=0;exitDy=0;entryX=0.5;entryY=0;entryDx=0;entryDy=0;fontFamily=Times New Roman;fontSize=12;fontColor=#000000;" edge="1" parent="1" source="Il8UtVw0Otbt6--CLPO0-4" target="Il8UtVw0Otbt6--CLPO0-1">
          <mxGeometry relative="1" as="geometry" />
        </mxCell>
        <mxCell id="Il8UtVw0Otbt6--CLPO0-4" value="Start" style="ellipse;whiteSpace=wrap;html=1;labelBackgroundColor=#FFFFFF;labelBorderColor=default;fontFamily=Times New Roman;fontSize=12;fontColor=#000000;" vertex="1" parent="1">
          <mxGeometry x="360" y="-70" width="120" height="90" as="geometry" />
        </mxCell>
        <mxCell id="Il8UtVw0Otbt6--CLPO0-21" style="edgeStyle=orthogonalEdgeStyle;rounded=0;orthogonalLoop=1;jettySize=auto;html=1;exitX=0.5;exitY=1;exitDx=0;exitDy=0;entryX=0.5;entryY=0;entryDx=0;entryDy=0;fontFamily=Times New Roman;fontSize=12;fontColor=#000000;" edge="1" parent="1" source="Il8UtVw0Otbt6--CLPO0-9" target="Il8UtVw0Otbt6--CLPO0-14">
          <mxGeometry relative="1" as="geometry">
            <Array as="points">
              <mxPoint x="420" y="490" />
              <mxPoint x="280" y="490" />
              <mxPoint x="280" y="820" />
              <mxPoint x="420" y="820" />
            </Array>
          </mxGeometry>
        </mxCell>
        <mxCell id="Il8UtVw0Otbt6--CLPO0-9" value="&lt;pre style=&quot;border-color: var(--border-color);&quot;&gt;&lt;span style=&quot;border-color: var(--border-color);&quot;&gt;All good!&lt;/span&gt;&lt;/pre&gt;" style="shape=parallelogram;perimeter=parallelogramPerimeter;whiteSpace=wrap;html=1;fixedSize=1;labelBackgroundColor=#FFFFFF;labelBorderColor=default;fontFamily=Times New Roman;fontSize=12;fontColor=#000000;" vertex="1" parent="1">
          <mxGeometry x="350" y="390" width="140" height="90" as="geometry" />
        </mxCell>
        <mxCell id="BfwfuSNitUQQfcRZjewd-20" style="edgeStyle=orthogonalEdgeStyle;rounded=0;orthogonalLoop=1;jettySize=auto;html=1;exitX=0.5;exitY=1;exitDx=0;exitDy=0;entryX=0.5;entryY=0;entryDx=0;entryDy=0;fontFamily=Times New Roman;fontSize=12;fontColor=#000000;" edge="1" parent="1" source="Il8UtVw0Otbt6--CLPO0-14" target="BfwfuSNitUQQfcRZjewd-8">
          <mxGeometry relative="1" as="geometry" />
        </mxCell>
        <mxCell id="BfwfuSNitUQQfcRZjewd-21" style="edgeStyle=orthogonalEdgeStyle;rounded=0;orthogonalLoop=1;jettySize=auto;html=1;exitX=0.5;exitY=1;exitDx=0;exitDy=0;entryX=0.5;entryY=0;entryDx=0;entryDy=0;fontFamily=Times New Roman;fontSize=12;fontColor=#000000;" edge="1" parent="1" source="Il8UtVw0Otbt6--CLPO0-14" target="BfwfuSNitUQQfcRZjewd-7">
          <mxGeometry relative="1" as="geometry">
            <Array as="points">
              <mxPoint x="420" y="990" />
              <mxPoint x="300" y="990" />
              <mxPoint x="300" y="1160" />
              <mxPoint x="420" y="1160" />
            </Array>
          </mxGeometry>
        </mxCell>
        <mxCell id="Il8UtVw0Otbt6--CLPO0-14" value="&lt;div style=&quot;font-family: &amp;quot;JetBrains Mono&amp;quot;, monospace;&quot;&gt;&lt;pre style=&quot;&quot;&gt;&lt;span style=&quot;background-color: rgb(255, 255, 255);&quot;&gt;openSymbol &amp;lt; 0 &lt;/span&gt;&lt;/pre&gt;&lt;pre style=&quot;&quot;&gt;&lt;span style=&quot;background-color: rgb(255, 255, 255);&quot;&gt;&amp;amp;&amp;amp; &lt;/span&gt;closeSymbol &amp;gt;= 0&lt;/pre&gt;&lt;/div&gt;" style="rhombus;whiteSpace=wrap;html=1;labelBackgroundColor=#FFFFFF;labelBorderColor=default;fontFamily=Times New Roman;fontSize=12;fontColor=#000000;align=center;" vertex="1" parent="1">
          <mxGeometry x="360" y="850" width="120" height="120" as="geometry" />
        </mxCell>
        <mxCell id="Il8UtVw0Otbt6--CLPO0-17" style="edgeStyle=orthogonalEdgeStyle;rounded=0;orthogonalLoop=1;jettySize=auto;html=1;exitX=0.5;exitY=1;exitDx=0;exitDy=0;entryX=0.5;entryY=0;entryDx=0;entryDy=0;fontFamily=Times New Roman;fontSize=12;fontColor=#000000;" edge="1" parent="1" source="Il8UtVw0Otbt6--CLPO0-15" target="Il8UtVw0Otbt6--CLPO0-14">
          <mxGeometry relative="1" as="geometry">
            <Array as="points">
              <mxPoint x="420" y="800" />
              <mxPoint x="420" y="800" />
            </Array>
          </mxGeometry>
        </mxCell>
        <mxCell id="Il8UtVw0Otbt6--CLPO0-15" value="&lt;div style=&quot;font-family: &amp;quot;JetBrains Mono&amp;quot;, monospace;&quot;&gt;&lt;pre style=&quot;&quot;&gt;&lt;span style=&quot;background-color: rgb(255, 255, 255);&quot;&gt;Error&lt;/span&gt;&lt;/pre&gt;&lt;/div&gt;" style="shape=parallelogram;perimeter=parallelogramPerimeter;whiteSpace=wrap;html=1;fixedSize=1;labelBackgroundColor=#FFFFFF;labelBorderColor=default;fontFamily=Times New Roman;fontSize=12;fontColor=#000000;" vertex="1" parent="1">
          <mxGeometry x="350" y="680" width="140" height="90" as="geometry" />
        </mxCell>
        <mxCell id="BfwfuSNitUQQfcRZjewd-1" value="Yes" style="text;html=1;align=center;verticalAlign=middle;resizable=0;points=[];autosize=1;strokeColor=none;fillColor=none;fontColor=#000000;labelBackgroundColor=#FFFFFF;" vertex="1" parent="1">
          <mxGeometry x="380" y="360" width="40" height="30" as="geometry" />
        </mxCell>
        <mxCell id="BfwfuSNitUQQfcRZjewd-2" value="Yes" style="text;html=1;align=center;verticalAlign=middle;resizable=0;points=[];autosize=1;strokeColor=none;fillColor=none;fontColor=#000000;labelBackgroundColor=#FFFFFF;" vertex="1" parent="1">
          <mxGeometry x="420" y="200" width="40" height="30" as="geometry" />
        </mxCell>
        <mxCell id="BfwfuSNitUQQfcRZjewd-3" value="Yes" style="text;html=1;align=center;verticalAlign=middle;resizable=0;points=[];autosize=1;strokeColor=none;fillColor=none;fontColor=#000000;labelBackgroundColor=#FFFFFF;" vertex="1" parent="1">
          <mxGeometry x="420" y="650" width="40" height="30" as="geometry" />
        </mxCell>
        <mxCell id="BfwfuSNitUQQfcRZjewd-4" value="No" style="text;html=1;align=center;verticalAlign=middle;resizable=0;points=[];autosize=1;strokeColor=none;fillColor=none;fontColor=#000000;labelBackgroundColor=#FFFFFF;" vertex="1" parent="1">
          <mxGeometry x="480" y="330" width="40" height="30" as="geometry" />
        </mxCell>
        <mxCell id="BfwfuSNitUQQfcRZjewd-5" value="No" style="text;html=1;align=center;verticalAlign=middle;resizable=0;points=[];autosize=1;strokeColor=none;fillColor=none;fontColor=#000000;labelBackgroundColor=#FFFFFF;" vertex="1" parent="1">
          <mxGeometry x="310" y="180" width="40" height="30" as="geometry" />
        </mxCell>
        <mxCell id="BfwfuSNitUQQfcRZjewd-6" value="No" style="text;html=1;align=center;verticalAlign=middle;resizable=0;points=[];autosize=1;strokeColor=none;fillColor=none;fontColor=#000000;labelBackgroundColor=#FFFFFF;" vertex="1" parent="1">
          <mxGeometry x="300" y="620" width="40" height="30" as="geometry" />
        </mxCell>
        <mxCell id="BfwfuSNitUQQfcRZjewd-12" style="edgeStyle=orthogonalEdgeStyle;rounded=0;orthogonalLoop=1;jettySize=auto;html=1;exitX=0.5;exitY=1;exitDx=0;exitDy=0;entryX=0.5;entryY=0;entryDx=0;entryDy=0;fontFamily=Times New Roman;fontSize=12;fontColor=#000000;" edge="1" parent="1" source="BfwfuSNitUQQfcRZjewd-7" target="BfwfuSNitUQQfcRZjewd-10">
          <mxGeometry relative="1" as="geometry" />
        </mxCell>
        <mxCell id="BfwfuSNitUQQfcRZjewd-13" style="edgeStyle=orthogonalEdgeStyle;rounded=0;orthogonalLoop=1;jettySize=auto;html=1;exitX=0.5;exitY=1;exitDx=0;exitDy=0;entryX=0.5;entryY=0;entryDx=0;entryDy=0;fontFamily=Times New Roman;fontSize=12;fontColor=#000000;" edge="1" parent="1" source="BfwfuSNitUQQfcRZjewd-7" target="BfwfuSNitUQQfcRZjewd-11">
          <mxGeometry relative="1" as="geometry">
            <Array as="points">
              <mxPoint x="420" y="1330" />
              <mxPoint x="310" y="1330" />
              <mxPoint x="310" y="1550" />
              <mxPoint x="420" y="1550" />
            </Array>
          </mxGeometry>
        </mxCell>
        <mxCell id="BfwfuSNitUQQfcRZjewd-7" value="&lt;pre style=&quot;border-color: var(--border-color);&quot;&gt;&lt;pre style=&quot;border-color: var(--border-color);&quot;&gt;&lt;span style=&quot;border-color: var(--border-color);&quot;&gt;openSymbol &amp;gt;= 0 &lt;/span&gt;&lt;/pre&gt;&lt;pre style=&quot;border-color: var(--border-color);&quot;&gt;&lt;span style=&quot;border-color: var(--border-color);&quot;&gt;&amp;amp;&amp;amp; &lt;/span&gt;closeSymbol &amp;lt; 0&lt;/pre&gt;&lt;/pre&gt;" style="rhombus;whiteSpace=wrap;html=1;labelBackgroundColor=#FFFFFF;labelBorderColor=default;fontFamily=Times New Roman;fontSize=12;fontColor=#000000;" vertex="1" parent="1">
          <mxGeometry x="360" y="1180" width="120" height="120" as="geometry" />
        </mxCell>
        <mxCell id="BfwfuSNitUQQfcRZjewd-19" style="edgeStyle=orthogonalEdgeStyle;rounded=0;orthogonalLoop=1;jettySize=auto;html=1;exitX=0.5;exitY=1;exitDx=0;exitDy=0;entryX=0.5;entryY=0;entryDx=0;entryDy=0;fontFamily=Times New Roman;fontSize=12;fontColor=#000000;" edge="1" parent="1" source="BfwfuSNitUQQfcRZjewd-8" target="BfwfuSNitUQQfcRZjewd-14">
          <mxGeometry relative="1" as="geometry">
            <Array as="points">
              <mxPoint x="420" y="1150" />
              <mxPoint x="580" y="1150" />
              <mxPoint x="580" y="1720" />
              <mxPoint x="420" y="1720" />
            </Array>
          </mxGeometry>
        </mxCell>
        <mxCell id="BfwfuSNitUQQfcRZjewd-8" value="&lt;div style=&quot;font-family: &amp;quot;JetBrains Mono&amp;quot;, monospace;&quot;&gt;&lt;pre style=&quot;&quot;&gt;&lt;span style=&quot;background-color: rgb(255, 255, 255);&quot;&gt;Open parenthesis missing!&lt;/span&gt;&lt;/pre&gt;&lt;/div&gt;" style="shape=parallelogram;perimeter=parallelogramPerimeter;whiteSpace=wrap;html=1;fixedSize=1;labelBackgroundColor=#FFFFFF;labelBorderColor=default;fontFamily=Times New Roman;fontSize=12;fontColor=#000000;" vertex="1" parent="1">
          <mxGeometry x="350" y="1030" width="140" height="90" as="geometry" />
        </mxCell>
        <mxCell id="BfwfuSNitUQQfcRZjewd-15" style="edgeStyle=orthogonalEdgeStyle;rounded=0;orthogonalLoop=1;jettySize=auto;html=1;exitX=0.5;exitY=1;exitDx=0;exitDy=0;entryX=0.5;entryY=0;entryDx=0;entryDy=0;fontFamily=Times New Roman;fontSize=12;fontColor=#000000;" edge="1" parent="1" source="BfwfuSNitUQQfcRZjewd-10" target="BfwfuSNitUQQfcRZjewd-14">
          <mxGeometry relative="1" as="geometry">
            <Array as="points">
              <mxPoint x="420" y="1520" />
              <mxPoint x="580" y="1520" />
              <mxPoint x="580" y="1720" />
              <mxPoint x="420" y="1720" />
            </Array>
          </mxGeometry>
        </mxCell>
        <mxCell id="BfwfuSNitUQQfcRZjewd-10" value="&lt;pre style=&quot;border-color: var(--border-color);&quot;&gt;&lt;span style=&quot;border-color: var(--border-color);&quot;&gt;Close parenthesis missing!&lt;/span&gt;&lt;/pre&gt;" style="shape=parallelogram;perimeter=parallelogramPerimeter;whiteSpace=wrap;html=1;fixedSize=1;labelBackgroundColor=#FFFFFF;labelBorderColor=default;fontFamily=Times New Roman;fontSize=12;fontColor=#000000;" vertex="1" parent="1">
          <mxGeometry x="350" y="1400" width="140" height="90" as="geometry" />
        </mxCell>
        <mxCell id="BfwfuSNitUQQfcRZjewd-18" style="edgeStyle=orthogonalEdgeStyle;rounded=0;orthogonalLoop=1;jettySize=auto;html=1;exitX=0.5;exitY=1;exitDx=0;exitDy=0;entryX=0.5;entryY=0;entryDx=0;entryDy=0;fontFamily=Times New Roman;fontSize=12;fontColor=#000000;" edge="1" parent="1" source="BfwfuSNitUQQfcRZjewd-11" target="BfwfuSNitUQQfcRZjewd-14">
          <mxGeometry relative="1" as="geometry" />
        </mxCell>
        <mxCell id="BfwfuSNitUQQfcRZjewd-11" value="&lt;pre style=&quot;border-color: var(--border-color);&quot;&gt;&lt;span style=&quot;border-color: var(--border-color);&quot;&gt;Parenthesis missing!&lt;/span&gt;&lt;/pre&gt;" style="shape=parallelogram;perimeter=parallelogramPerimeter;whiteSpace=wrap;html=1;fixedSize=1;labelBackgroundColor=#FFFFFF;labelBorderColor=default;fontFamily=Times New Roman;fontSize=12;fontColor=#000000;" vertex="1" parent="1">
          <mxGeometry x="350" y="1590" width="140" height="90" as="geometry" />
        </mxCell>
        <mxCell id="BfwfuSNitUQQfcRZjewd-14" value="End" style="ellipse;whiteSpace=wrap;html=1;labelBackgroundColor=#FFFFFF;labelBorderColor=default;fontFamily=Times New Roman;fontSize=12;fontColor=#000000;" vertex="1" parent="1">
          <mxGeometry x="360" y="1770" width="120" height="90" as="geometry" />
        </mxCell>
        <mxCell id="BfwfuSNitUQQfcRZjewd-22" value="No" style="text;html=1;align=center;verticalAlign=middle;resizable=0;points=[];autosize=1;strokeColor=none;fillColor=none;fontColor=#000000;labelBackgroundColor=#FFFFFF;" vertex="1" parent="1">
          <mxGeometry x="320" y="960" width="40" height="30" as="geometry" />
        </mxCell>
        <mxCell id="BfwfuSNitUQQfcRZjewd-23" value="No" style="text;html=1;align=center;verticalAlign=middle;resizable=0;points=[];autosize=1;strokeColor=none;fillColor=none;fontColor=#000000;labelBackgroundColor=#FFFFFF;" vertex="1" parent="1">
          <mxGeometry x="330" y="1300" width="40" height="30" as="geometry" />
        </mxCell>
        <mxCell id="BfwfuSNitUQQfcRZjewd-24" value="Yes" style="text;html=1;align=center;verticalAlign=middle;resizable=0;points=[];autosize=1;strokeColor=none;fillColor=none;fontColor=#000000;labelBackgroundColor=#FFFFFF;" vertex="1" parent="1">
          <mxGeometry x="420" y="990" width="40" height="30" as="geometry" />
        </mxCell>
        <mxCell id="BfwfuSNitUQQfcRZjewd-25" value="Yes" style="text;html=1;align=center;verticalAlign=middle;resizable=0;points=[];autosize=1;strokeColor=none;fillColor=none;fontColor=#000000;labelBackgroundColor=#FFFFFF;" vertex="1" parent="1">
          <mxGeometry x="420" y="1350" width="40" height="30" as="geometry" />
        </mxCell>
      </root>
    </mxGraphModel>
  </diagram>
  <diagram id="Lik36i7zGZP4fAZVrJMu" name="Ex_6">
    <mxGraphModel dx="2985" dy="1905" grid="1" gridSize="10" guides="1" tooltips="1" connect="1" arrows="1" fold="1" page="1" pageScale="1" pageWidth="827" pageHeight="1169" math="0" shadow="0">
      <root>
        <mxCell id="0" />
        <mxCell id="1" parent="0" />
        <mxCell id="ZogueFYMEMna5fSRYeQS-10" style="edgeStyle=orthogonalEdgeStyle;rounded=0;orthogonalLoop=1;jettySize=auto;html=1;exitX=0.5;exitY=1;exitDx=0;exitDy=0;entryX=0.5;entryY=0;entryDx=0;entryDy=0;entryPerimeter=0;fontFamily=Times New Roman;fontSize=12;fontColor=#000000;" edge="1" parent="1" source="ZogueFYMEMna5fSRYeQS-1" target="ZogueFYMEMna5fSRYeQS-2">
          <mxGeometry relative="1" as="geometry" />
        </mxCell>
        <mxCell id="ZogueFYMEMna5fSRYeQS-1" value="Start" style="ellipse;whiteSpace=wrap;html=1;labelBackgroundColor=#FFFFFF;labelBorderColor=default;fontFamily=Times New Roman;fontSize=12;fontColor=#000000;" vertex="1" parent="1">
          <mxGeometry x="339.5" y="75" width="120" height="70" as="geometry" />
        </mxCell>
        <mxCell id="ZogueFYMEMna5fSRYeQS-6" style="edgeStyle=orthogonalEdgeStyle;rounded=0;orthogonalLoop=1;jettySize=auto;html=1;exitX=0.5;exitY=1;exitDx=0;exitDy=0;exitPerimeter=0;entryX=0.5;entryY=0;entryDx=0;entryDy=0;entryPerimeter=0;fontFamily=Times New Roman;fontSize=12;fontColor=#000000;" edge="1" parent="1" source="ZogueFYMEMna5fSRYeQS-2" target="ZogueFYMEMna5fSRYeQS-4">
          <mxGeometry relative="1" as="geometry" />
        </mxCell>
        <mxCell id="ZogueFYMEMna5fSRYeQS-2" value="&lt;div style=&quot;font-family: &amp;quot;JetBrains Mono&amp;quot;, monospace;&quot;&gt;&lt;pre style=&quot;&quot;&gt;&lt;span style=&quot;background-color: rgb(255, 255, 255);&quot;&gt;i &amp;lt; sort.size() - 1&lt;/span&gt;&lt;/pre&gt;&lt;/div&gt;" style="strokeWidth=2;html=1;shape=mxgraph.flowchart.loop_limit;whiteSpace=wrap;labelBackgroundColor=#FFFFFF;labelBorderColor=default;fontFamily=Times New Roman;fontSize=12;fontColor=#000000;" vertex="1" parent="1">
          <mxGeometry x="339.5" y="185" width="120" height="90" as="geometry" />
        </mxCell>
        <mxCell id="ZogueFYMEMna5fSRYeQS-9" style="edgeStyle=orthogonalEdgeStyle;rounded=0;orthogonalLoop=1;jettySize=auto;html=1;exitX=0.5;exitY=0;exitDx=0;exitDy=0;exitPerimeter=0;entryX=0.5;entryY=0;entryDx=0;entryDy=0;fontFamily=Times New Roman;fontSize=12;fontColor=#000000;" edge="1" parent="1" source="ZogueFYMEMna5fSRYeQS-3" target="ZogueFYMEMna5fSRYeQS-8">
          <mxGeometry relative="1" as="geometry" />
        </mxCell>
        <mxCell id="ZogueFYMEMna5fSRYeQS-3" value="i++" style="strokeWidth=2;html=1;shape=mxgraph.flowchart.loop_limit;whiteSpace=wrap;labelBackgroundColor=#FFFFFF;labelBorderColor=default;fontFamily=Times New Roman;fontSize=12;fontColor=#000000;direction=west;" vertex="1" parent="1">
          <mxGeometry x="339.5" y="915" width="120" height="90" as="geometry" />
        </mxCell>
        <mxCell id="ZogueFYMEMna5fSRYeQS-19" style="edgeStyle=orthogonalEdgeStyle;rounded=0;orthogonalLoop=1;jettySize=auto;html=1;exitX=0.5;exitY=1;exitDx=0;exitDy=0;exitPerimeter=0;entryX=0.5;entryY=0;entryDx=0;entryDy=0;fontFamily=Times New Roman;fontSize=12;fontColor=#000000;" edge="1" parent="1" source="ZogueFYMEMna5fSRYeQS-4" target="ZogueFYMEMna5fSRYeQS-16">
          <mxGeometry relative="1" as="geometry" />
        </mxCell>
        <mxCell id="ZogueFYMEMna5fSRYeQS-4" value="&lt;pre style=&quot;border-color: var(--border-color);&quot;&gt;&lt;span style=&quot;border-color: var(--border-color);&quot;&gt;j &amp;lt; sort.size() - i&lt;/span&gt;&lt;/pre&gt;" style="strokeWidth=2;html=1;shape=mxgraph.flowchart.loop_limit;whiteSpace=wrap;labelBackgroundColor=#FFFFFF;labelBorderColor=default;fontFamily=Times New Roman;fontSize=12;fontColor=#000000;" vertex="1" parent="1">
          <mxGeometry x="339.5" y="315" width="120" height="90" as="geometry" />
        </mxCell>
        <mxCell id="ZogueFYMEMna5fSRYeQS-7" style="edgeStyle=orthogonalEdgeStyle;rounded=0;orthogonalLoop=1;jettySize=auto;html=1;exitX=0.5;exitY=0;exitDx=0;exitDy=0;exitPerimeter=0;entryX=0.5;entryY=1;entryDx=0;entryDy=0;entryPerimeter=0;fontFamily=Times New Roman;fontSize=12;fontColor=#000000;" edge="1" parent="1" source="ZogueFYMEMna5fSRYeQS-5" target="ZogueFYMEMna5fSRYeQS-3">
          <mxGeometry relative="1" as="geometry" />
        </mxCell>
        <mxCell id="ZogueFYMEMna5fSRYeQS-5" value="j++" style="strokeWidth=2;html=1;shape=mxgraph.flowchart.loop_limit;whiteSpace=wrap;labelBackgroundColor=#FFFFFF;labelBorderColor=default;fontFamily=Times New Roman;fontSize=12;fontColor=#000000;direction=west;" vertex="1" parent="1">
          <mxGeometry x="339.5" y="785" width="120" height="90" as="geometry" />
        </mxCell>
        <mxCell id="ZogueFYMEMna5fSRYeQS-8" value="return sort;" style="ellipse;whiteSpace=wrap;html=1;labelBackgroundColor=#FFFFFF;labelBorderColor=default;fontFamily=Times New Roman;fontSize=12;fontColor=#000000;" vertex="1" parent="1">
          <mxGeometry x="339.5" y="1055" width="120" height="70" as="geometry" />
        </mxCell>
        <mxCell id="ZogueFYMEMna5fSRYeQS-13" style="edgeStyle=orthogonalEdgeStyle;rounded=0;orthogonalLoop=1;jettySize=auto;html=1;exitX=0.5;exitY=1;exitDx=0;exitDy=0;entryX=0.5;entryY=1;entryDx=0;entryDy=0;entryPerimeter=0;fontFamily=Times New Roman;fontSize=12;fontColor=#000000;" edge="1" parent="1" source="ZogueFYMEMna5fSRYeQS-12" target="ZogueFYMEMna5fSRYeQS-5">
          <mxGeometry relative="1" as="geometry" />
        </mxCell>
        <mxCell id="ZogueFYMEMna5fSRYeQS-12" value="&lt;div style=&quot;font-family: &amp;quot;JetBrains Mono&amp;quot;, monospace;&quot;&gt;&lt;pre style=&quot;&quot;&gt;&lt;span style=&quot;background-color: rgb(255, 255, 255);&quot;&gt;swap = sort.get(j);&lt;br&gt;sort.set(j, sort.get(j + 1));&lt;br&gt;sort.set(j + 1, swap);&lt;/span&gt;&lt;/pre&gt;&lt;/div&gt;" style="rounded=0;whiteSpace=wrap;html=1;labelBackgroundColor=#FFFFFF;labelBorderColor=default;fontFamily=Times New Roman;fontSize=12;fontColor=#000000;" vertex="1" parent="1">
          <mxGeometry x="297" y="645" width="205" height="90" as="geometry" />
        </mxCell>
        <mxCell id="ZogueFYMEMna5fSRYeQS-17" style="edgeStyle=orthogonalEdgeStyle;rounded=0;orthogonalLoop=1;jettySize=auto;html=1;exitX=0.5;exitY=1;exitDx=0;exitDy=0;entryX=0.5;entryY=0;entryDx=0;entryDy=0;fontFamily=Times New Roman;fontSize=12;fontColor=#000000;" edge="1" parent="1" source="ZogueFYMEMna5fSRYeQS-16" target="ZogueFYMEMna5fSRYeQS-12">
          <mxGeometry relative="1" as="geometry" />
        </mxCell>
        <mxCell id="ZogueFYMEMna5fSRYeQS-18" style="edgeStyle=orthogonalEdgeStyle;rounded=0;orthogonalLoop=1;jettySize=auto;html=1;exitX=0.5;exitY=1;exitDx=0;exitDy=0;entryX=0.5;entryY=1;entryDx=0;entryDy=0;entryPerimeter=0;fontFamily=Times New Roman;fontSize=12;fontColor=#000000;" edge="1" parent="1" source="ZogueFYMEMna5fSRYeQS-16" target="ZogueFYMEMna5fSRYeQS-5">
          <mxGeometry relative="1" as="geometry">
            <Array as="points">
              <mxPoint x="399.5" y="615" />
              <mxPoint x="529.5" y="615" />
              <mxPoint x="529.5" y="755" />
              <mxPoint x="399.5" y="755" />
            </Array>
          </mxGeometry>
        </mxCell>
        <mxCell id="ZogueFYMEMna5fSRYeQS-16" value="&lt;div style=&quot;font-family: &amp;quot;JetBrains Mono&amp;quot;, monospace;&quot;&gt;&lt;pre style=&quot;&quot;&gt;&lt;span style=&quot;background-color: rgb(255, 255, 255);&quot;&gt;sort.get(j + 1) &lt;/span&gt;&lt;/pre&gt;&lt;pre style=&quot;&quot;&gt;&lt;span style=&quot;background-color: rgb(255, 255, 255);&quot;&gt;&amp;lt; sort.get(j)&lt;/span&gt;&lt;/pre&gt;&lt;/div&gt;" style="rhombus;whiteSpace=wrap;html=1;labelBackgroundColor=#FFFFFF;labelBorderColor=default;fontFamily=Times New Roman;fontSize=12;fontColor=#000000;" vertex="1" parent="1">
          <mxGeometry x="334.5" y="455" width="130" height="140" as="geometry" />
        </mxCell>
        <mxCell id="gOxh2SbkFaoSOvcC47Z1-1" value="Yes" style="text;html=1;align=center;verticalAlign=middle;resizable=0;points=[];autosize=1;strokeColor=none;fillColor=none;fontColor=#000000;labelBackgroundColor=#FFFFFF;" vertex="1" parent="1">
          <mxGeometry x="359.5" y="604.5" width="40" height="30" as="geometry" />
        </mxCell>
        <mxCell id="gOxh2SbkFaoSOvcC47Z1-2" value="No" style="text;html=1;align=center;verticalAlign=middle;resizable=0;points=[];autosize=1;strokeColor=none;fillColor=none;fontColor=#000000;labelBackgroundColor=#FFFFFF;" vertex="1" parent="1">
          <mxGeometry x="439.5" y="585" width="40" height="30" as="geometry" />
        </mxCell>
        <mxCell id="gOxh2SbkFaoSOvcC47Z1-3" value="BubbleSort" style="text;html=1;align=center;verticalAlign=middle;resizable=0;points=[];autosize=1;strokeColor=none;fillColor=none;fontColor=#000000;labelBackgroundColor=#FFFFFF;fontSize=25;" vertex="1" parent="1">
          <mxGeometry x="324.5" y="30" width="150" height="40" as="geometry" />
        </mxCell>
        <mxCell id="gOxh2SbkFaoSOvcC47Z1-4" style="edgeStyle=orthogonalEdgeStyle;rounded=0;orthogonalLoop=1;jettySize=auto;html=1;exitX=0.5;exitY=1;exitDx=0;exitDy=0;entryX=0.5;entryY=0;entryDx=0;entryDy=0;entryPerimeter=0;fontFamily=Times New Roman;fontSize=12;fontColor=#000000;" edge="1" parent="1" source="gOxh2SbkFaoSOvcC47Z1-5" target="gOxh2SbkFaoSOvcC47Z1-7">
          <mxGeometry relative="1" as="geometry" />
        </mxCell>
        <mxCell id="gOxh2SbkFaoSOvcC47Z1-5" value="Start" style="ellipse;whiteSpace=wrap;html=1;labelBackgroundColor=#FFFFFF;labelBorderColor=default;fontFamily=Times New Roman;fontSize=12;fontColor=#000000;" vertex="1" parent="1">
          <mxGeometry x="712.5" y="75" width="120" height="70" as="geometry" />
        </mxCell>
        <mxCell id="gOxh2SbkFaoSOvcC47Z1-27" style="edgeStyle=orthogonalEdgeStyle;rounded=0;orthogonalLoop=1;jettySize=auto;html=1;exitX=0.5;exitY=1;exitDx=0;exitDy=0;exitPerimeter=0;entryX=0.5;entryY=0;entryDx=0;entryDy=0;fontFamily=Times New Roman;fontSize=25;fontColor=#000000;" edge="1" parent="1" source="gOxh2SbkFaoSOvcC47Z1-7" target="gOxh2SbkFaoSOvcC47Z1-23">
          <mxGeometry relative="1" as="geometry" />
        </mxCell>
        <mxCell id="gOxh2SbkFaoSOvcC47Z1-7" value="&lt;div style=&quot;font-family: &amp;quot;JetBrains Mono&amp;quot;, monospace;&quot;&gt;&lt;pre style=&quot;&quot;&gt;&lt;span style=&quot;background-color: rgb(255, 255, 255);&quot;&gt;i &amp;lt; sort.size()&lt;/span&gt;&lt;/pre&gt;&lt;/div&gt;" style="strokeWidth=2;html=1;shape=mxgraph.flowchart.loop_limit;whiteSpace=wrap;labelBackgroundColor=#FFFFFF;labelBorderColor=default;fontFamily=Times New Roman;fontSize=12;fontColor=#000000;" vertex="1" parent="1">
          <mxGeometry x="712.5" y="185" width="120" height="90" as="geometry" />
        </mxCell>
        <mxCell id="gOxh2SbkFaoSOvcC47Z1-8" style="edgeStyle=orthogonalEdgeStyle;rounded=0;orthogonalLoop=1;jettySize=auto;html=1;exitX=0.5;exitY=0;exitDx=0;exitDy=0;exitPerimeter=0;entryX=0.5;entryY=0;entryDx=0;entryDy=0;fontFamily=Times New Roman;fontSize=12;fontColor=#000000;" edge="1" parent="1" source="gOxh2SbkFaoSOvcC47Z1-9">
          <mxGeometry relative="1" as="geometry">
            <mxPoint x="772.5" y="1099" as="targetPoint" />
          </mxGeometry>
        </mxCell>
        <mxCell id="gOxh2SbkFaoSOvcC47Z1-9" value="i++" style="strokeWidth=2;html=1;shape=mxgraph.flowchart.loop_limit;whiteSpace=wrap;labelBackgroundColor=#FFFFFF;labelBorderColor=default;fontFamily=Times New Roman;fontSize=12;fontColor=#000000;direction=west;" vertex="1" parent="1">
          <mxGeometry x="712.5" y="959" width="120" height="90" as="geometry" />
        </mxCell>
        <mxCell id="gOxh2SbkFaoSOvcC47Z1-29" style="edgeStyle=orthogonalEdgeStyle;rounded=0;orthogonalLoop=1;jettySize=auto;html=1;exitX=0.5;exitY=1;exitDx=0;exitDy=0;exitPerimeter=0;entryX=0.5;entryY=0;entryDx=0;entryDy=0;fontFamily=Times New Roman;fontSize=25;fontColor=#000000;" edge="1" parent="1" source="gOxh2SbkFaoSOvcC47Z1-11" target="gOxh2SbkFaoSOvcC47Z1-16">
          <mxGeometry relative="1" as="geometry" />
        </mxCell>
        <mxCell id="gOxh2SbkFaoSOvcC47Z1-11" value="&lt;pre style=&quot;border-color: var(--border-color);&quot;&gt;&lt;div style=&quot;font-family: &amp;quot;JetBrains Mono&amp;quot;, monospace;&quot;&gt;&lt;pre style=&quot;&quot;&gt;&lt;span style=&quot;background-color: rgb(255, 255, 255);&quot;&gt;j &amp;gt; 0 &amp;amp;&amp;amp; sort.get(j - 1) &amp;gt; swap&lt;/span&gt;&lt;/pre&gt;&lt;/div&gt;&lt;/pre&gt;" style="strokeWidth=2;html=1;shape=mxgraph.flowchart.loop_limit;whiteSpace=wrap;labelBackgroundColor=#FFFFFF;labelBorderColor=default;fontFamily=Times New Roman;fontSize=12;fontColor=#000000;" vertex="1" parent="1">
          <mxGeometry x="712.5" y="450" width="120" height="90" as="geometry" />
        </mxCell>
        <mxCell id="gOxh2SbkFaoSOvcC47Z1-25" style="edgeStyle=orthogonalEdgeStyle;rounded=0;orthogonalLoop=1;jettySize=auto;html=1;exitX=0.5;exitY=0;exitDx=0;exitDy=0;exitPerimeter=0;entryX=0.5;entryY=0;entryDx=0;entryDy=0;fontFamily=Times New Roman;fontSize=25;fontColor=#000000;" edge="1" parent="1" source="gOxh2SbkFaoSOvcC47Z1-13" target="gOxh2SbkFaoSOvcC47Z1-24">
          <mxGeometry relative="1" as="geometry" />
        </mxCell>
        <mxCell id="gOxh2SbkFaoSOvcC47Z1-13" value="&lt;pre style=&quot;border-color: var(--border-color);&quot;&gt;&lt;span style=&quot;border-color: var(--border-color);&quot;&gt;j--;&lt;/span&gt;&lt;/pre&gt;" style="strokeWidth=2;html=1;shape=mxgraph.flowchart.loop_limit;whiteSpace=wrap;labelBackgroundColor=#FFFFFF;labelBorderColor=default;fontFamily=Times New Roman;fontSize=12;fontColor=#000000;direction=west;" vertex="1" parent="1">
          <mxGeometry x="712.5" y="724" width="120" height="90" as="geometry" />
        </mxCell>
        <mxCell id="gOxh2SbkFaoSOvcC47Z1-14" value="return sort;" style="ellipse;whiteSpace=wrap;html=1;labelBackgroundColor=#FFFFFF;labelBorderColor=default;fontFamily=Times New Roman;fontSize=12;fontColor=#000000;" vertex="1" parent="1">
          <mxGeometry x="710" y="1099" width="120" height="70" as="geometry" />
        </mxCell>
        <mxCell id="gOxh2SbkFaoSOvcC47Z1-31" style="edgeStyle=orthogonalEdgeStyle;rounded=0;orthogonalLoop=1;jettySize=auto;html=1;exitX=0.5;exitY=1;exitDx=0;exitDy=0;entryX=0.5;entryY=1;entryDx=0;entryDy=0;entryPerimeter=0;fontFamily=Times New Roman;fontSize=25;fontColor=#000000;" edge="1" parent="1" source="gOxh2SbkFaoSOvcC47Z1-16" target="gOxh2SbkFaoSOvcC47Z1-13">
          <mxGeometry relative="1" as="geometry" />
        </mxCell>
        <mxCell id="gOxh2SbkFaoSOvcC47Z1-16" value="&lt;div style=&quot;font-family: &amp;quot;JetBrains Mono&amp;quot;, monospace;&quot;&gt;&lt;pre style=&quot;&quot;&gt;&lt;div style=&quot;font-family: &amp;quot;JetBrains Mono&amp;quot;, monospace;&quot;&gt;&lt;pre style=&quot;&quot;&gt;&lt;span style=&quot;background-color: rgb(255, 255, 255);&quot;&gt;sort.set(j, sort.get(j - 1));&lt;br&gt;&lt;br&gt;&lt;/span&gt;&lt;/pre&gt;&lt;/div&gt;&lt;/pre&gt;&lt;/div&gt;" style="rounded=0;whiteSpace=wrap;html=1;labelBackgroundColor=#FFFFFF;labelBorderColor=default;fontFamily=Times New Roman;fontSize=12;fontColor=#000000;" vertex="1" parent="1">
          <mxGeometry x="671.88" y="595" width="201.25" height="74" as="geometry" />
        </mxCell>
        <mxCell id="gOxh2SbkFaoSOvcC47Z1-22" value="InsertSort" style="text;html=1;align=center;verticalAlign=middle;resizable=0;points=[];autosize=1;strokeColor=none;fillColor=none;fontColor=#000000;labelBackgroundColor=#FFFFFF;fontSize=25;" vertex="1" parent="1">
          <mxGeometry x="707.5" y="30" width="130" height="40" as="geometry" />
        </mxCell>
        <mxCell id="gOxh2SbkFaoSOvcC47Z1-28" style="edgeStyle=orthogonalEdgeStyle;rounded=0;orthogonalLoop=1;jettySize=auto;html=1;exitX=0.5;exitY=1;exitDx=0;exitDy=0;entryX=0.5;entryY=0;entryDx=0;entryDy=0;entryPerimeter=0;fontFamily=Times New Roman;fontSize=25;fontColor=#000000;" edge="1" parent="1" source="gOxh2SbkFaoSOvcC47Z1-23" target="gOxh2SbkFaoSOvcC47Z1-11">
          <mxGeometry relative="1" as="geometry" />
        </mxCell>
        <mxCell id="gOxh2SbkFaoSOvcC47Z1-23" value="&lt;div style=&quot;font-family: &amp;quot;JetBrains Mono&amp;quot;, monospace;&quot;&gt;&lt;pre style=&quot;&quot;&gt;&lt;div style=&quot;font-family: &amp;quot;JetBrains Mono&amp;quot;, monospace;&quot;&gt;&lt;pre style=&quot;&quot;&gt;&lt;div style=&quot;font-family: &amp;quot;JetBrains Mono&amp;quot;, monospace;&quot;&gt;&lt;pre style=&quot;&quot;&gt;&lt;span style=&quot;background-color: rgb(255, 255, 255);&quot;&gt;swap = sort.get(i);&lt;br&gt;int j = i;&lt;/span&gt;&lt;/pre&gt;&lt;/div&gt;&lt;/pre&gt;&lt;/div&gt;&lt;/pre&gt;&lt;/div&gt;" style="rounded=0;whiteSpace=wrap;html=1;labelBackgroundColor=#FFFFFF;labelBorderColor=default;fontFamily=Times New Roman;fontSize=12;fontColor=#000000;" vertex="1" parent="1">
          <mxGeometry x="681.25" y="320" width="182.5" height="85" as="geometry" />
        </mxCell>
        <mxCell id="gOxh2SbkFaoSOvcC47Z1-26" style="edgeStyle=orthogonalEdgeStyle;rounded=0;orthogonalLoop=1;jettySize=auto;html=1;exitX=0.5;exitY=1;exitDx=0;exitDy=0;entryX=0.5;entryY=1;entryDx=0;entryDy=0;entryPerimeter=0;fontFamily=Times New Roman;fontSize=25;fontColor=#000000;" edge="1" parent="1" source="gOxh2SbkFaoSOvcC47Z1-24" target="gOxh2SbkFaoSOvcC47Z1-9">
          <mxGeometry relative="1" as="geometry" />
        </mxCell>
        <mxCell id="gOxh2SbkFaoSOvcC47Z1-24" value="&lt;div style=&quot;font-family: &amp;quot;JetBrains Mono&amp;quot;, monospace;&quot;&gt;&lt;pre style=&quot;&quot;&gt;&lt;div style=&quot;font-family: &amp;quot;JetBrains Mono&amp;quot;, monospace;&quot;&gt;&lt;pre style=&quot;&quot;&gt;&lt;div style=&quot;font-family: &amp;quot;JetBrains Mono&amp;quot;, monospace;&quot;&gt;&lt;pre style=&quot;&quot;&gt;&lt;span style=&quot;background-color: rgb(255, 255, 255);&quot;&gt;sort.set(j, swap);&lt;/span&gt;&lt;/pre&gt;&lt;/div&gt;&lt;/pre&gt;&lt;/div&gt;&lt;/pre&gt;&lt;/div&gt;" style="rounded=0;whiteSpace=wrap;html=1;labelBackgroundColor=#FFFFFF;labelBorderColor=default;fontFamily=Times New Roman;fontSize=12;fontColor=#000000;" vertex="1" parent="1">
          <mxGeometry x="671.88" y="851" width="201.25" height="64" as="geometry" />
        </mxCell>
        <mxCell id="gOxh2SbkFaoSOvcC47Z1-32" style="edgeStyle=orthogonalEdgeStyle;rounded=0;orthogonalLoop=1;jettySize=auto;html=1;exitX=0.5;exitY=1;exitDx=0;exitDy=0;entryX=0.5;entryY=0;entryDx=0;entryDy=0;entryPerimeter=0;fontFamily=Times New Roman;fontSize=12;fontColor=#000000;" edge="1" parent="1" source="gOxh2SbkFaoSOvcC47Z1-33" target="gOxh2SbkFaoSOvcC47Z1-35">
          <mxGeometry relative="1" as="geometry" />
        </mxCell>
        <mxCell id="gOxh2SbkFaoSOvcC47Z1-33" value="Start" style="ellipse;whiteSpace=wrap;html=1;labelBackgroundColor=#FFFFFF;labelBorderColor=default;fontFamily=Times New Roman;fontSize=12;fontColor=#000000;" vertex="1" parent="1">
          <mxGeometry x="1020.62" y="75" width="120" height="70" as="geometry" />
        </mxCell>
        <mxCell id="gOxh2SbkFaoSOvcC47Z1-34" style="edgeStyle=orthogonalEdgeStyle;rounded=0;orthogonalLoop=1;jettySize=auto;html=1;exitX=0.5;exitY=1;exitDx=0;exitDy=0;exitPerimeter=0;entryX=0.5;entryY=0;entryDx=0;entryDy=0;fontFamily=Times New Roman;fontSize=25;fontColor=#000000;" edge="1" parent="1" source="gOxh2SbkFaoSOvcC47Z1-35" target="gOxh2SbkFaoSOvcC47Z1-47">
          <mxGeometry relative="1" as="geometry" />
        </mxCell>
        <mxCell id="gOxh2SbkFaoSOvcC47Z1-35" value="&lt;div style=&quot;font-family: &amp;quot;JetBrains Mono&amp;quot;, monospace;&quot;&gt;&lt;pre style=&quot;&quot;&gt;&lt;span style=&quot;background-color: rgb(255, 255, 255);&quot;&gt;i &amp;lt; sort.size()&lt;/span&gt;&lt;/pre&gt;&lt;/div&gt;" style="strokeWidth=2;html=1;shape=mxgraph.flowchart.loop_limit;whiteSpace=wrap;labelBackgroundColor=#FFFFFF;labelBorderColor=default;fontFamily=Times New Roman;fontSize=12;fontColor=#000000;" vertex="1" parent="1">
          <mxGeometry x="1020.62" y="185" width="120" height="90" as="geometry" />
        </mxCell>
        <mxCell id="gOxh2SbkFaoSOvcC47Z1-36" style="edgeStyle=orthogonalEdgeStyle;rounded=0;orthogonalLoop=1;jettySize=auto;html=1;exitX=0.5;exitY=0;exitDx=0;exitDy=0;exitPerimeter=0;entryX=0.5;entryY=0;entryDx=0;entryDy=0;fontFamily=Times New Roman;fontSize=12;fontColor=#000000;" edge="1" parent="1" source="gOxh2SbkFaoSOvcC47Z1-37">
          <mxGeometry relative="1" as="geometry">
            <mxPoint x="1080.62" y="1264" as="targetPoint" />
          </mxGeometry>
        </mxCell>
        <mxCell id="gOxh2SbkFaoSOvcC47Z1-37" value="i++" style="strokeWidth=2;html=1;shape=mxgraph.flowchart.loop_limit;whiteSpace=wrap;labelBackgroundColor=#FFFFFF;labelBorderColor=default;fontFamily=Times New Roman;fontSize=12;fontColor=#000000;direction=west;" vertex="1" parent="1">
          <mxGeometry x="1020.62" y="1124" width="120" height="90" as="geometry" />
        </mxCell>
        <mxCell id="gOxh2SbkFaoSOvcC47Z1-55" style="edgeStyle=orthogonalEdgeStyle;rounded=0;orthogonalLoop=1;jettySize=auto;html=1;exitX=0.5;exitY=1;exitDx=0;exitDy=0;exitPerimeter=0;entryX=0.5;entryY=0;entryDx=0;entryDy=0;fontFamily=Times New Roman;fontSize=25;fontColor=#000000;" edge="1" parent="1" source="gOxh2SbkFaoSOvcC47Z1-39" target="gOxh2SbkFaoSOvcC47Z1-50">
          <mxGeometry relative="1" as="geometry" />
        </mxCell>
        <mxCell id="gOxh2SbkFaoSOvcC47Z1-39" value="&lt;pre style=&quot;border-color: var(--border-color);&quot;&gt;&lt;div style=&quot;font-family: &amp;quot;JetBrains Mono&amp;quot;, monospace;&quot;&gt;&lt;pre style=&quot;&quot;&gt;&lt;div style=&quot;font-family: &amp;quot;JetBrains Mono&amp;quot;, monospace;&quot;&gt;&lt;pre style=&quot;&quot;&gt;&lt;span style=&quot;background-color: rgb(255, 255, 255);&quot;&gt;int j = i + 1; j &amp;lt; sort.size()&lt;/span&gt;&lt;/pre&gt;&lt;/div&gt;&lt;/pre&gt;&lt;/div&gt;&lt;/pre&gt;" style="strokeWidth=2;html=1;shape=mxgraph.flowchart.loop_limit;whiteSpace=wrap;labelBackgroundColor=#FFFFFF;labelBorderColor=default;fontFamily=Times New Roman;fontSize=12;fontColor=#000000;" vertex="1" parent="1">
          <mxGeometry x="1020.62" y="450" width="120" height="90" as="geometry" />
        </mxCell>
        <mxCell id="gOxh2SbkFaoSOvcC47Z1-40" style="edgeStyle=orthogonalEdgeStyle;rounded=0;orthogonalLoop=1;jettySize=auto;html=1;exitX=0.5;exitY=0;exitDx=0;exitDy=0;exitPerimeter=0;entryX=0.5;entryY=0;entryDx=0;entryDy=0;fontFamily=Times New Roman;fontSize=25;fontColor=#000000;" edge="1" parent="1" source="gOxh2SbkFaoSOvcC47Z1-41" target="gOxh2SbkFaoSOvcC47Z1-49">
          <mxGeometry relative="1" as="geometry" />
        </mxCell>
        <mxCell id="gOxh2SbkFaoSOvcC47Z1-41" value="&lt;pre style=&quot;border-color: var(--border-color);&quot;&gt;&lt;span style=&quot;border-color: var(--border-color);&quot;&gt;j++&lt;/span&gt;&lt;/pre&gt;" style="strokeWidth=2;html=1;shape=mxgraph.flowchart.loop_limit;whiteSpace=wrap;labelBackgroundColor=#FFFFFF;labelBorderColor=default;fontFamily=Times New Roman;fontSize=12;fontColor=#000000;direction=west;" vertex="1" parent="1">
          <mxGeometry x="1020.62" y="889" width="120" height="90" as="geometry" />
        </mxCell>
        <mxCell id="gOxh2SbkFaoSOvcC47Z1-42" value="return sort;" style="ellipse;whiteSpace=wrap;html=1;labelBackgroundColor=#FFFFFF;labelBorderColor=default;fontFamily=Times New Roman;fontSize=12;fontColor=#000000;" vertex="1" parent="1">
          <mxGeometry x="1018.12" y="1264" width="120" height="70" as="geometry" />
        </mxCell>
        <mxCell id="gOxh2SbkFaoSOvcC47Z1-43" style="edgeStyle=orthogonalEdgeStyle;rounded=0;orthogonalLoop=1;jettySize=auto;html=1;exitX=0.5;exitY=1;exitDx=0;exitDy=0;entryX=0.5;entryY=1;entryDx=0;entryDy=0;entryPerimeter=0;fontFamily=Times New Roman;fontSize=25;fontColor=#000000;" edge="1" parent="1" source="gOxh2SbkFaoSOvcC47Z1-44" target="gOxh2SbkFaoSOvcC47Z1-41">
          <mxGeometry relative="1" as="geometry" />
        </mxCell>
        <mxCell id="gOxh2SbkFaoSOvcC47Z1-44" value="&lt;div style=&quot;font-family: &amp;quot;JetBrains Mono&amp;quot;, monospace;&quot;&gt;&lt;pre style=&quot;&quot;&gt;&lt;div style=&quot;font-family: &amp;quot;JetBrains Mono&amp;quot;, monospace;&quot;&gt;&lt;pre style=&quot;&quot;&gt;&lt;div style=&quot;font-family: &amp;quot;JetBrains Mono&amp;quot;, monospace;&quot;&gt;&lt;pre style=&quot;&quot;&gt;&lt;span style=&quot;background-color: rgb(255, 255, 255);&quot;&gt;pos = j;&lt;br&gt;minNumber = sort.get(j);&lt;/span&gt;&lt;/pre&gt;&lt;/div&gt;&lt;/pre&gt;&lt;/div&gt;&lt;/pre&gt;&lt;/div&gt;" style="rounded=0;whiteSpace=wrap;html=1;labelBackgroundColor=#FFFFFF;labelBorderColor=default;fontFamily=Times New Roman;fontSize=12;fontColor=#000000;" vertex="1" parent="1">
          <mxGeometry x="980" y="760" width="201.25" height="74" as="geometry" />
        </mxCell>
        <mxCell id="gOxh2SbkFaoSOvcC47Z1-45" value="SelectionSort" style="text;html=1;align=center;verticalAlign=middle;resizable=0;points=[];autosize=1;strokeColor=none;fillColor=none;fontColor=#000000;labelBackgroundColor=#FFFFFF;fontSize=25;" vertex="1" parent="1">
          <mxGeometry x="995.62" y="30" width="170" height="40" as="geometry" />
        </mxCell>
        <mxCell id="gOxh2SbkFaoSOvcC47Z1-46" style="edgeStyle=orthogonalEdgeStyle;rounded=0;orthogonalLoop=1;jettySize=auto;html=1;exitX=0.5;exitY=1;exitDx=0;exitDy=0;entryX=0.5;entryY=0;entryDx=0;entryDy=0;entryPerimeter=0;fontFamily=Times New Roman;fontSize=25;fontColor=#000000;" edge="1" parent="1" source="gOxh2SbkFaoSOvcC47Z1-47" target="gOxh2SbkFaoSOvcC47Z1-39">
          <mxGeometry relative="1" as="geometry" />
        </mxCell>
        <mxCell id="gOxh2SbkFaoSOvcC47Z1-47" value="&lt;div style=&quot;font-family: &amp;quot;JetBrains Mono&amp;quot;, monospace;&quot;&gt;&lt;pre style=&quot;&quot;&gt;&lt;div style=&quot;font-family: &amp;quot;JetBrains Mono&amp;quot;, monospace;&quot;&gt;&lt;pre style=&quot;&quot;&gt;&lt;div style=&quot;font-family: &amp;quot;JetBrains Mono&amp;quot;, monospace;&quot;&gt;&lt;pre style=&quot;&quot;&gt;&lt;div style=&quot;font-family: &amp;quot;JetBrains Mono&amp;quot;, monospace;&quot;&gt;&lt;pre style=&quot;&quot;&gt;&lt;span style=&quot;background-color: rgb(255, 255, 255);&quot;&gt;int pos = i;&lt;br&gt;int minNumber = sort.get(i);&lt;/span&gt;&lt;/pre&gt;&lt;/div&gt;&lt;/pre&gt;&lt;/div&gt;&lt;/pre&gt;&lt;/div&gt;&lt;/pre&gt;&lt;/div&gt;" style="rounded=0;whiteSpace=wrap;html=1;labelBackgroundColor=#FFFFFF;labelBorderColor=default;fontFamily=Times New Roman;fontSize=12;fontColor=#000000;" vertex="1" parent="1">
          <mxGeometry x="989.37" y="320" width="182.5" height="85" as="geometry" />
        </mxCell>
        <mxCell id="gOxh2SbkFaoSOvcC47Z1-48" style="edgeStyle=orthogonalEdgeStyle;rounded=0;orthogonalLoop=1;jettySize=auto;html=1;exitX=0.5;exitY=1;exitDx=0;exitDy=0;entryX=0.5;entryY=1;entryDx=0;entryDy=0;entryPerimeter=0;fontFamily=Times New Roman;fontSize=25;fontColor=#000000;" edge="1" parent="1" source="gOxh2SbkFaoSOvcC47Z1-49" target="gOxh2SbkFaoSOvcC47Z1-37">
          <mxGeometry relative="1" as="geometry" />
        </mxCell>
        <mxCell id="gOxh2SbkFaoSOvcC47Z1-49" value="&lt;div style=&quot;font-family: &amp;quot;JetBrains Mono&amp;quot;, monospace;&quot;&gt;&lt;pre style=&quot;&quot;&gt;&lt;div style=&quot;font-family: &amp;quot;JetBrains Mono&amp;quot;, monospace;&quot;&gt;&lt;pre style=&quot;&quot;&gt;&lt;div style=&quot;font-family: &amp;quot;JetBrains Mono&amp;quot;, monospace;&quot;&gt;&lt;pre style=&quot;&quot;&gt;&lt;div style=&quot;font-family: &amp;quot;JetBrains Mono&amp;quot;, monospace;&quot;&gt;&lt;pre style=&quot;&quot;&gt;&lt;span style=&quot;background-color: rgb(255, 255, 255);&quot;&gt;sort.set(pos, sort.get(i));&lt;br&gt;sort.set(i, minNumber);&lt;/span&gt;&lt;/pre&gt;&lt;/div&gt;&lt;/pre&gt;&lt;/div&gt;&lt;/pre&gt;&lt;/div&gt;&lt;/pre&gt;&lt;/div&gt;" style="rounded=0;whiteSpace=wrap;html=1;labelBackgroundColor=#FFFFFF;labelBorderColor=default;fontFamily=Times New Roman;fontSize=12;fontColor=#000000;" vertex="1" parent="1">
          <mxGeometry x="980" y="1016" width="201.25" height="64" as="geometry" />
        </mxCell>
        <mxCell id="gOxh2SbkFaoSOvcC47Z1-51" style="edgeStyle=orthogonalEdgeStyle;rounded=0;orthogonalLoop=1;jettySize=auto;html=1;exitX=0.5;exitY=1;exitDx=0;exitDy=0;entryX=0.5;entryY=0;entryDx=0;entryDy=0;fontFamily=Times New Roman;fontSize=25;fontColor=#000000;" edge="1" parent="1" source="gOxh2SbkFaoSOvcC47Z1-50" target="gOxh2SbkFaoSOvcC47Z1-44">
          <mxGeometry relative="1" as="geometry" />
        </mxCell>
        <mxCell id="gOxh2SbkFaoSOvcC47Z1-52" style="edgeStyle=orthogonalEdgeStyle;rounded=0;orthogonalLoop=1;jettySize=auto;html=1;exitX=0.5;exitY=1;exitDx=0;exitDy=0;entryX=0.5;entryY=1;entryDx=0;entryDy=0;entryPerimeter=0;fontFamily=Times New Roman;fontSize=25;fontColor=#000000;" edge="1" parent="1" source="gOxh2SbkFaoSOvcC47Z1-50" target="gOxh2SbkFaoSOvcC47Z1-41">
          <mxGeometry relative="1" as="geometry">
            <Array as="points">
              <mxPoint x="1081" y="730" />
              <mxPoint x="1210" y="730" />
              <mxPoint x="1210" y="860" />
              <mxPoint x="1081" y="860" />
            </Array>
          </mxGeometry>
        </mxCell>
        <mxCell id="gOxh2SbkFaoSOvcC47Z1-50" value="&lt;div style=&quot;font-family: &amp;quot;JetBrains Mono&amp;quot;, monospace;&quot;&gt;&lt;pre style=&quot;&quot;&gt;&lt;span style=&quot;background-color: rgb(255, 255, 255);&quot;&gt;sort.get(j + 1) &lt;/span&gt;&lt;/pre&gt;&lt;pre style=&quot;&quot;&gt;&lt;span style=&quot;background-color: rgb(255, 255, 255);&quot;&gt;&amp;lt; sort.get(j)&lt;/span&gt;&lt;/pre&gt;&lt;/div&gt;" style="rhombus;whiteSpace=wrap;html=1;labelBackgroundColor=#FFFFFF;labelBorderColor=default;fontFamily=Times New Roman;fontSize=12;fontColor=#000000;" vertex="1" parent="1">
          <mxGeometry x="1015.62" y="562" width="130" height="140" as="geometry" />
        </mxCell>
        <mxCell id="gOxh2SbkFaoSOvcC47Z1-53" value="No" style="text;html=1;align=center;verticalAlign=middle;resizable=0;points=[];autosize=1;strokeColor=none;fillColor=none;fontColor=#000000;labelBackgroundColor=#FFFFFF;" vertex="1" parent="1">
          <mxGeometry x="1120" y="694" width="40" height="30" as="geometry" />
        </mxCell>
        <mxCell id="gOxh2SbkFaoSOvcC47Z1-54" value="Yes" style="text;html=1;align=center;verticalAlign=middle;resizable=0;points=[];autosize=1;strokeColor=none;fillColor=none;fontColor=#000000;labelBackgroundColor=#FFFFFF;" vertex="1" parent="1">
          <mxGeometry x="1040" y="724" width="40" height="30" as="geometry" />
        </mxCell>
        <mxCell id="gOxh2SbkFaoSOvcC47Z1-56" style="edgeStyle=orthogonalEdgeStyle;rounded=0;orthogonalLoop=1;jettySize=auto;html=1;exitX=0.5;exitY=1;exitDx=0;exitDy=0;entryX=0.5;entryY=0;entryDx=0;entryDy=0;entryPerimeter=0;fontFamily=Times New Roman;fontSize=12;fontColor=#000000;" edge="1" parent="1" source="gOxh2SbkFaoSOvcC47Z1-57" target="gOxh2SbkFaoSOvcC47Z1-59">
          <mxGeometry relative="1" as="geometry" />
        </mxCell>
        <mxCell id="gOxh2SbkFaoSOvcC47Z1-57" value="Start" style="ellipse;whiteSpace=wrap;html=1;labelBackgroundColor=#FFFFFF;labelBorderColor=default;fontFamily=Times New Roman;fontSize=12;fontColor=#000000;" vertex="1" parent="1">
          <mxGeometry x="1390.62" y="83" width="120" height="70" as="geometry" />
        </mxCell>
        <mxCell id="gOxh2SbkFaoSOvcC47Z1-80" style="edgeStyle=orthogonalEdgeStyle;rounded=0;orthogonalLoop=1;jettySize=auto;html=1;exitX=0.5;exitY=1;exitDx=0;exitDy=0;exitPerimeter=0;entryX=0.5;entryY=0;entryDx=0;entryDy=0;entryPerimeter=0;fontFamily=Times New Roman;fontSize=25;fontColor=#000000;" edge="1" parent="1" source="gOxh2SbkFaoSOvcC47Z1-59" target="gOxh2SbkFaoSOvcC47Z1-63">
          <mxGeometry relative="1" as="geometry" />
        </mxCell>
        <mxCell id="gOxh2SbkFaoSOvcC47Z1-59" value="&lt;div style=&quot;font-family: &amp;quot;JetBrains Mono&amp;quot;, monospace;&quot;&gt;&lt;pre style=&quot;&quot;&gt;&lt;div style=&quot;font-family: &amp;quot;JetBrains Mono&amp;quot;, monospace;&quot;&gt;&lt;pre style=&quot;&quot;&gt;&lt;span style=&quot;background-color: rgb(255, 255, 255);&quot;&gt;step = n / 2; step &amp;gt; 0;&lt;/span&gt;&lt;/pre&gt;&lt;/div&gt;&lt;/pre&gt;&lt;/div&gt;" style="strokeWidth=2;html=1;shape=mxgraph.flowchart.loop_limit;whiteSpace=wrap;labelBackgroundColor=#FFFFFF;labelBorderColor=default;fontFamily=Times New Roman;fontSize=12;fontColor=#000000;" vertex="1" parent="1">
          <mxGeometry x="1390.62" y="193" width="120" height="90" as="geometry" />
        </mxCell>
        <mxCell id="gOxh2SbkFaoSOvcC47Z1-60" style="edgeStyle=orthogonalEdgeStyle;rounded=0;orthogonalLoop=1;jettySize=auto;html=1;exitX=0.5;exitY=0;exitDx=0;exitDy=0;exitPerimeter=0;entryX=0.5;entryY=0;entryDx=0;entryDy=0;fontFamily=Times New Roman;fontSize=12;fontColor=#000000;" edge="1" parent="1" source="gOxh2SbkFaoSOvcC47Z1-61">
          <mxGeometry relative="1" as="geometry">
            <mxPoint x="1450.6399999999999" y="1665" as="targetPoint" />
          </mxGeometry>
        </mxCell>
        <mxCell id="gOxh2SbkFaoSOvcC47Z1-61" value="step /= 2" style="strokeWidth=2;html=1;shape=mxgraph.flowchart.loop_limit;whiteSpace=wrap;labelBackgroundColor=#FFFFFF;labelBorderColor=default;fontFamily=Times New Roman;fontSize=12;fontColor=#000000;direction=west;" vertex="1" parent="1">
          <mxGeometry x="1390.6399999999999" y="1525" width="120" height="90" as="geometry" />
        </mxCell>
        <mxCell id="gOxh2SbkFaoSOvcC47Z1-81" style="edgeStyle=orthogonalEdgeStyle;rounded=0;orthogonalLoop=1;jettySize=auto;html=1;exitX=0.5;exitY=1;exitDx=0;exitDy=0;exitPerimeter=0;entryX=0.5;entryY=0;entryDx=0;entryDy=0;fontFamily=Times New Roman;fontSize=25;fontColor=#000000;" edge="1" parent="1" source="gOxh2SbkFaoSOvcC47Z1-63" target="gOxh2SbkFaoSOvcC47Z1-71">
          <mxGeometry relative="1" as="geometry" />
        </mxCell>
        <mxCell id="gOxh2SbkFaoSOvcC47Z1-63" value="&lt;pre style=&quot;border-color: var(--border-color);&quot;&gt;&lt;div style=&quot;font-family: &amp;quot;JetBrains Mono&amp;quot;, monospace;&quot;&gt;&lt;pre style=&quot;&quot;&gt;&lt;div style=&quot;font-family: &amp;quot;JetBrains Mono&amp;quot;, monospace;&quot;&gt;&lt;pre style=&quot;&quot;&gt;&lt;div style=&quot;font-family: &amp;quot;JetBrains Mono&amp;quot;, monospace;&quot;&gt;&lt;pre style=&quot;&quot;&gt;&lt;span style=&quot;background-color: rgb(255, 255, 255);&quot;&gt;i = step; i &amp;lt; n;&lt;/span&gt;&lt;/pre&gt;&lt;/div&gt;&lt;/pre&gt;&lt;/div&gt;&lt;/pre&gt;&lt;/div&gt;&lt;/pre&gt;" style="strokeWidth=2;html=1;shape=mxgraph.flowchart.loop_limit;whiteSpace=wrap;labelBackgroundColor=#FFFFFF;labelBorderColor=default;fontFamily=Times New Roman;fontSize=12;fontColor=#000000;" vertex="1" parent="1">
          <mxGeometry x="1390.62" y="320" width="120" height="90" as="geometry" />
        </mxCell>
        <mxCell id="gOxh2SbkFaoSOvcC47Z1-89" style="edgeStyle=orthogonalEdgeStyle;rounded=0;orthogonalLoop=1;jettySize=auto;html=1;exitX=0.5;exitY=0;exitDx=0;exitDy=0;exitPerimeter=0;entryX=0.5;entryY=1;entryDx=0;entryDy=0;entryPerimeter=0;fontFamily=Times New Roman;fontSize=25;fontColor=#000000;" edge="1" parent="1" source="gOxh2SbkFaoSOvcC47Z1-65" target="gOxh2SbkFaoSOvcC47Z1-61">
          <mxGeometry relative="1" as="geometry" />
        </mxCell>
        <mxCell id="gOxh2SbkFaoSOvcC47Z1-65" value="&lt;pre style=&quot;border-color: var(--border-color);&quot;&gt;&lt;span style=&quot;border-color: var(--border-color);&quot;&gt;i++&lt;/span&gt;&lt;/pre&gt;" style="strokeWidth=2;html=1;shape=mxgraph.flowchart.loop_limit;whiteSpace=wrap;labelBackgroundColor=#FFFFFF;labelBorderColor=default;fontFamily=Times New Roman;fontSize=12;fontColor=#000000;direction=west;" vertex="1" parent="1">
          <mxGeometry x="1390.6399999999999" y="1401" width="120" height="90" as="geometry" />
        </mxCell>
        <mxCell id="gOxh2SbkFaoSOvcC47Z1-66" value="return sort;" style="ellipse;whiteSpace=wrap;html=1;labelBackgroundColor=#FFFFFF;labelBorderColor=default;fontFamily=Times New Roman;fontSize=12;fontColor=#000000;" vertex="1" parent="1">
          <mxGeometry x="1390.6499999999999" y="1665" width="120" height="70" as="geometry" />
        </mxCell>
        <mxCell id="gOxh2SbkFaoSOvcC47Z1-91" style="edgeStyle=orthogonalEdgeStyle;rounded=0;orthogonalLoop=1;jettySize=auto;html=1;exitX=0.5;exitY=1;exitDx=0;exitDy=0;entryX=0.5;entryY=1;entryDx=0;entryDy=0;entryPerimeter=0;fontFamily=Times New Roman;fontSize=25;fontColor=#000000;" edge="1" parent="1" source="gOxh2SbkFaoSOvcC47Z1-68" target="gOxh2SbkFaoSOvcC47Z1-85">
          <mxGeometry relative="1" as="geometry">
            <Array as="points">
              <mxPoint x="1451" y="1008" />
              <mxPoint x="1310" y="1008" />
              <mxPoint x="1310" y="1140" />
              <mxPoint x="1451" y="1140" />
            </Array>
          </mxGeometry>
        </mxCell>
        <mxCell id="gOxh2SbkFaoSOvcC47Z1-68" value="&lt;div style=&quot;font-family: &amp;quot;JetBrains Mono&amp;quot;, monospace;&quot;&gt;&lt;pre style=&quot;&quot;&gt;&lt;div style=&quot;font-family: &amp;quot;JetBrains Mono&amp;quot;, monospace;&quot;&gt;&lt;pre style=&quot;&quot;&gt;&lt;div style=&quot;font-family: &amp;quot;JetBrains Mono&amp;quot;, monospace;&quot;&gt;&lt;pre style=&quot;&quot;&gt;&lt;div style=&quot;font-family: &amp;quot;JetBrains Mono&amp;quot;, monospace;&quot;&gt;&lt;pre style=&quot;&quot;&gt;&lt;span style=&quot;background-color: rgb(255, 255, 255);&quot;&gt;sort.set(j,sort.get(j-step))&lt;/span&gt;&lt;/pre&gt;&lt;/div&gt;&lt;/pre&gt;&lt;/div&gt;&lt;/pre&gt;&lt;/div&gt;&lt;/pre&gt;&lt;/div&gt;" style="rounded=0;whiteSpace=wrap;html=1;labelBackgroundColor=#FFFFFF;labelBorderColor=default;fontFamily=Times New Roman;fontSize=12;fontColor=#000000;" vertex="1" parent="1">
          <mxGeometry x="1350" y="915" width="201.25" height="74" as="geometry" />
        </mxCell>
        <mxCell id="gOxh2SbkFaoSOvcC47Z1-69" value="SelectionSort" style="text;html=1;align=center;verticalAlign=middle;resizable=0;points=[];autosize=1;strokeColor=none;fillColor=none;fontColor=#000000;labelBackgroundColor=#FFFFFF;fontSize=25;" vertex="1" parent="1">
          <mxGeometry x="1365.62" y="38" width="170" height="40" as="geometry" />
        </mxCell>
        <mxCell id="gOxh2SbkFaoSOvcC47Z1-83" style="edgeStyle=orthogonalEdgeStyle;rounded=0;orthogonalLoop=1;jettySize=auto;html=1;exitX=0.5;exitY=1;exitDx=0;exitDy=0;entryX=0.5;entryY=0;entryDx=0;entryDy=0;entryPerimeter=0;fontFamily=Times New Roman;fontSize=25;fontColor=#000000;" edge="1" parent="1" source="gOxh2SbkFaoSOvcC47Z1-71" target="gOxh2SbkFaoSOvcC47Z1-82">
          <mxGeometry relative="1" as="geometry" />
        </mxCell>
        <mxCell id="gOxh2SbkFaoSOvcC47Z1-71" value="&lt;div style=&quot;font-family: &amp;quot;JetBrains Mono&amp;quot;, monospace;&quot;&gt;&lt;pre style=&quot;&quot;&gt;&lt;div style=&quot;font-family: &amp;quot;JetBrains Mono&amp;quot;, monospace;&quot;&gt;&lt;pre style=&quot;&quot;&gt;&lt;div style=&quot;font-family: &amp;quot;JetBrains Mono&amp;quot;, monospace;&quot;&gt;&lt;pre style=&quot;&quot;&gt;&lt;div style=&quot;font-family: &amp;quot;JetBrains Mono&amp;quot;, monospace;&quot;&gt;&lt;pre style=&quot;&quot;&gt;&lt;div style=&quot;font-family: &amp;quot;JetBrains Mono&amp;quot;, monospace;&quot;&gt;&lt;pre style=&quot;&quot;&gt;&lt;span style=&quot;background-color: rgb(255, 255, 255);&quot;&gt;swap = sort.get(i);&lt;/span&gt;&lt;/pre&gt;&lt;/div&gt;&lt;/pre&gt;&lt;/div&gt;&lt;/pre&gt;&lt;/div&gt;&lt;/pre&gt;&lt;/div&gt;&lt;/pre&gt;&lt;/div&gt;" style="rounded=0;whiteSpace=wrap;html=1;labelBackgroundColor=#FFFFFF;labelBorderColor=default;fontFamily=Times New Roman;fontSize=12;fontColor=#000000;" vertex="1" parent="1">
          <mxGeometry x="1359.37" y="450" width="182.5" height="85" as="geometry" />
        </mxCell>
        <mxCell id="gOxh2SbkFaoSOvcC47Z1-90" style="edgeStyle=orthogonalEdgeStyle;rounded=0;orthogonalLoop=1;jettySize=auto;html=1;exitX=0.5;exitY=1;exitDx=0;exitDy=0;entryX=0.5;entryY=1;entryDx=0;entryDy=0;entryPerimeter=0;fontFamily=Times New Roman;fontSize=25;fontColor=#000000;" edge="1" parent="1" source="gOxh2SbkFaoSOvcC47Z1-73" target="gOxh2SbkFaoSOvcC47Z1-85">
          <mxGeometry relative="1" as="geometry" />
        </mxCell>
        <mxCell id="gOxh2SbkFaoSOvcC47Z1-73" value="&lt;div style=&quot;font-family: &amp;quot;JetBrains Mono&amp;quot;, monospace;&quot;&gt;&lt;pre style=&quot;&quot;&gt;&lt;div style=&quot;font-family: &amp;quot;JetBrains Mono&amp;quot;, monospace;&quot;&gt;&lt;pre style=&quot;&quot;&gt;&lt;div style=&quot;font-family: &amp;quot;JetBrains Mono&amp;quot;, monospace;&quot;&gt;&lt;pre style=&quot;&quot;&gt;&lt;div style=&quot;font-family: &amp;quot;JetBrains Mono&amp;quot;, monospace;&quot;&gt;&lt;pre style=&quot;&quot;&gt;&lt;div style=&quot;font-family: &amp;quot;JetBrains Mono&amp;quot;, monospace;&quot;&gt;&lt;pre style=&quot;&quot;&gt;&lt;span style=&quot;background-color: rgb(255, 255, 255);&quot;&gt;&lt;font style=&quot;font-size: 17px;&quot;&gt;break&lt;/font&gt;&lt;/span&gt;&lt;/pre&gt;&lt;/div&gt;&lt;/pre&gt;&lt;/div&gt;&lt;/pre&gt;&lt;/div&gt;&lt;/pre&gt;&lt;/div&gt;&lt;/pre&gt;&lt;/div&gt;" style="rounded=0;whiteSpace=wrap;html=1;labelBackgroundColor=#FFFFFF;labelBorderColor=default;fontFamily=Times New Roman;fontSize=12;fontColor=#000000;" vertex="1" parent="1">
          <mxGeometry x="1350.01" y="1040" width="201.25" height="64" as="geometry" />
        </mxCell>
        <mxCell id="gOxh2SbkFaoSOvcC47Z1-74" style="edgeStyle=orthogonalEdgeStyle;rounded=0;orthogonalLoop=1;jettySize=auto;html=1;exitX=0.5;exitY=1;exitDx=0;exitDy=0;entryX=0.5;entryY=0;entryDx=0;entryDy=0;fontFamily=Times New Roman;fontSize=25;fontColor=#000000;" edge="1" parent="1" source="gOxh2SbkFaoSOvcC47Z1-76" target="gOxh2SbkFaoSOvcC47Z1-68">
          <mxGeometry relative="1" as="geometry" />
        </mxCell>
        <mxCell id="gOxh2SbkFaoSOvcC47Z1-92" style="edgeStyle=orthogonalEdgeStyle;rounded=0;orthogonalLoop=1;jettySize=auto;html=1;exitX=0.5;exitY=1;exitDx=0;exitDy=0;entryX=0.5;entryY=0;entryDx=0;entryDy=0;fontFamily=Times New Roman;fontSize=25;fontColor=#000000;" edge="1" parent="1" source="gOxh2SbkFaoSOvcC47Z1-76" target="gOxh2SbkFaoSOvcC47Z1-73">
          <mxGeometry relative="1" as="geometry">
            <Array as="points">
              <mxPoint x="1451" y="890" />
              <mxPoint x="1570" y="890" />
              <mxPoint x="1570" y="1020" />
              <mxPoint x="1451" y="1020" />
            </Array>
          </mxGeometry>
        </mxCell>
        <mxCell id="gOxh2SbkFaoSOvcC47Z1-76" value="&lt;div style=&quot;font-family: &amp;quot;JetBrains Mono&amp;quot;, monospace;&quot;&gt;&lt;pre style=&quot;&quot;&gt;&lt;div style=&quot;font-family: &amp;quot;JetBrains Mono&amp;quot;, monospace;&quot;&gt;&lt;pre style=&quot;&quot;&gt;&lt;span style=&quot;background-color: rgb(255, 255, 255);&quot;&gt;swap &amp;lt;  sort.get(j-step)&lt;/span&gt;&lt;/pre&gt;&lt;/div&gt;&lt;/pre&gt;&lt;/div&gt;" style="rhombus;whiteSpace=wrap;html=1;labelBackgroundColor=#FFFFFF;labelBorderColor=default;fontFamily=Times New Roman;fontSize=12;fontColor=#000000;" vertex="1" parent="1">
          <mxGeometry x="1385.62" y="735" width="130" height="140" as="geometry" />
        </mxCell>
        <mxCell id="gOxh2SbkFaoSOvcC47Z1-77" value="No" style="text;html=1;align=center;verticalAlign=middle;resizable=0;points=[];autosize=1;strokeColor=none;fillColor=none;fontColor=#000000;labelBackgroundColor=#FFFFFF;" vertex="1" parent="1">
          <mxGeometry x="1490" y="867" width="40" height="30" as="geometry" />
        </mxCell>
        <mxCell id="gOxh2SbkFaoSOvcC47Z1-78" value="Yes" style="text;html=1;align=center;verticalAlign=middle;resizable=0;points=[];autosize=1;strokeColor=none;fillColor=none;fontColor=#000000;labelBackgroundColor=#FFFFFF;" vertex="1" parent="1">
          <mxGeometry x="1410" y="875" width="40" height="30" as="geometry" />
        </mxCell>
        <mxCell id="gOxh2SbkFaoSOvcC47Z1-86" style="edgeStyle=orthogonalEdgeStyle;rounded=0;orthogonalLoop=1;jettySize=auto;html=1;exitX=0.5;exitY=1;exitDx=0;exitDy=0;exitPerimeter=0;entryX=0.5;entryY=0;entryDx=0;entryDy=0;fontFamily=Times New Roman;fontSize=25;fontColor=#000000;" edge="1" parent="1" source="gOxh2SbkFaoSOvcC47Z1-82" target="gOxh2SbkFaoSOvcC47Z1-76">
          <mxGeometry relative="1" as="geometry" />
        </mxCell>
        <mxCell id="gOxh2SbkFaoSOvcC47Z1-82" value="&lt;pre style=&quot;border-color: var(--border-color);&quot;&gt;&lt;div style=&quot;font-family: &amp;quot;JetBrains Mono&amp;quot;, monospace;&quot;&gt;&lt;pre style=&quot;&quot;&gt;&lt;div style=&quot;font-family: &amp;quot;JetBrains Mono&amp;quot;, monospace;&quot;&gt;&lt;pre style=&quot;&quot;&gt;&lt;div style=&quot;font-family: &amp;quot;JetBrains Mono&amp;quot;, monospace;&quot;&gt;&lt;pre style=&quot;&quot;&gt;&lt;div style=&quot;font-family: &amp;quot;JetBrains Mono&amp;quot;, monospace;&quot;&gt;&lt;pre style=&quot;&quot;&gt;&lt;span style=&quot;background-color: rgb(255, 255, 255);&quot;&gt;j = i; j &amp;gt;= step&lt;/span&gt;&lt;/pre&gt;&lt;/div&gt;&lt;/pre&gt;&lt;/div&gt;&lt;/pre&gt;&lt;/div&gt;&lt;/pre&gt;&lt;/div&gt;&lt;/pre&gt;" style="strokeWidth=2;html=1;shape=mxgraph.flowchart.loop_limit;whiteSpace=wrap;labelBackgroundColor=#FFFFFF;labelBorderColor=default;fontFamily=Times New Roman;fontSize=12;fontColor=#000000;" vertex="1" parent="1">
          <mxGeometry x="1390.62" y="574.5" width="120" height="90" as="geometry" />
        </mxCell>
        <mxCell id="gOxh2SbkFaoSOvcC47Z1-88" style="edgeStyle=orthogonalEdgeStyle;rounded=0;orthogonalLoop=1;jettySize=auto;html=1;exitX=0.5;exitY=1;exitDx=0;exitDy=0;entryX=0.5;entryY=1;entryDx=0;entryDy=0;entryPerimeter=0;fontFamily=Times New Roman;fontSize=25;fontColor=#000000;" edge="1" parent="1" source="gOxh2SbkFaoSOvcC47Z1-84" target="gOxh2SbkFaoSOvcC47Z1-65">
          <mxGeometry relative="1" as="geometry" />
        </mxCell>
        <mxCell id="gOxh2SbkFaoSOvcC47Z1-84" value="&lt;div style=&quot;font-family: &amp;quot;JetBrains Mono&amp;quot;, monospace;&quot;&gt;&lt;pre style=&quot;&quot;&gt;&lt;div style=&quot;font-family: &amp;quot;JetBrains Mono&amp;quot;, monospace;&quot;&gt;&lt;pre style=&quot;&quot;&gt;&lt;div style=&quot;font-family: &amp;quot;JetBrains Mono&amp;quot;, monospace;&quot;&gt;&lt;pre style=&quot;&quot;&gt;&lt;div style=&quot;font-family: &amp;quot;JetBrains Mono&amp;quot;, monospace;&quot;&gt;&lt;pre style=&quot;&quot;&gt;&lt;div style=&quot;font-family: &amp;quot;JetBrains Mono&amp;quot;, monospace;&quot;&gt;&lt;pre style=&quot;&quot;&gt;&lt;span style=&quot;background-color: rgb(255, 255, 255);&quot;&gt;sort.set(j,swap);&lt;/span&gt;&lt;/pre&gt;&lt;/div&gt;&lt;/pre&gt;&lt;/div&gt;&lt;/pre&gt;&lt;/div&gt;&lt;/pre&gt;&lt;/div&gt;&lt;/pre&gt;&lt;/div&gt;" style="rounded=0;whiteSpace=wrap;html=1;labelBackgroundColor=#FFFFFF;labelBorderColor=default;fontFamily=Times New Roman;fontSize=12;fontColor=#000000;" vertex="1" parent="1">
          <mxGeometry x="1350.01" y="1290" width="201.25" height="64" as="geometry" />
        </mxCell>
        <mxCell id="gOxh2SbkFaoSOvcC47Z1-87" style="edgeStyle=orthogonalEdgeStyle;rounded=0;orthogonalLoop=1;jettySize=auto;html=1;exitX=0.5;exitY=0;exitDx=0;exitDy=0;exitPerimeter=0;entryX=0.5;entryY=0;entryDx=0;entryDy=0;fontFamily=Times New Roman;fontSize=25;fontColor=#000000;" edge="1" parent="1" source="gOxh2SbkFaoSOvcC47Z1-85" target="gOxh2SbkFaoSOvcC47Z1-84">
          <mxGeometry relative="1" as="geometry" />
        </mxCell>
        <mxCell id="gOxh2SbkFaoSOvcC47Z1-85" value="&lt;pre style=&quot;border-color: var(--border-color);&quot;&gt;&lt;span style=&quot;border-color: var(--border-color);&quot;&gt;j -= step&lt;/span&gt;&lt;/pre&gt;" style="strokeWidth=2;html=1;shape=mxgraph.flowchart.loop_limit;whiteSpace=wrap;labelBackgroundColor=#FFFFFF;labelBorderColor=default;fontFamily=Times New Roman;fontSize=12;fontColor=#000000;direction=west;" vertex="1" parent="1">
          <mxGeometry x="1390.6399999999999" y="1169" width="120" height="90" as="geometry" />
        </mxCell>
      </root>
    </mxGraphModel>
  </diagram>
</mxfile>
